<svg width="480" height="303" viewBox="0 0 480 303" fill="none" xmlns="http://www.w3.org/2000/svg">
<g filter="url(#filter0_f_454_3424)">
<ellipse cx="240.421" cy="279.208" rx="215.31" ry="2.37912" fill="black"/>
</g>
<path d="M47.4739 13.6981C47.4739 6.60273 53.2258 0.850824 60.3211 0.850824H421.947C429.042 0.850824 434.794 6.60273 434.794 13.6981V262.078C434.794 262.866 434.155 263.505 433.367 263.505H48.9013C48.113 263.505 47.4739 262.866 47.4739 262.078V13.6981Z" fill="#1A202C" stroke="#4A5568" stroke-width="0.951647"/>
<path d="M49.3789 13.2215C49.3789 7.44016 54.0656 2.75342 59.847 2.75342H422.425C428.206 2.75342 432.893 7.44015 432.893 13.2215V253.988H49.3789V13.2215Z" fill="black"/>
<path d="M221.485 254.966H222.482L223.818 258.226H223.871L225.206 254.966H226.204V259.465H225.422V256.374H225.38L224.137 259.452H223.552L222.309 256.368H222.267V259.465H221.485V254.966ZM228.027 259.533C227.813 259.533 227.62 259.495 227.449 259.419C227.279 259.341 227.144 259.227 227.045 259.076C226.947 258.925 226.898 258.739 226.898 258.518C226.898 258.328 226.933 258.17 227.003 258.046C227.073 257.921 227.169 257.822 227.291 257.747C227.412 257.672 227.549 257.616 227.702 257.578C227.855 257.538 228.014 257.51 228.178 257.492C228.376 257.472 228.536 257.453 228.659 257.437C228.782 257.42 228.872 257.393 228.927 257.358C228.984 257.322 229.013 257.265 229.013 257.189V257.176C229.013 257.01 228.964 256.882 228.866 256.792C228.768 256.701 228.626 256.655 228.442 256.655C228.247 256.655 228.093 256.698 227.978 256.783C227.866 256.868 227.79 256.968 227.75 257.084L227.008 256.978C227.066 256.773 227.163 256.602 227.297 256.464C227.432 256.325 227.597 256.221 227.792 256.152C227.986 256.082 228.202 256.047 228.438 256.047C228.6 256.047 228.762 256.066 228.923 256.104C229.084 256.142 229.231 256.205 229.364 256.293C229.498 256.379 229.605 256.497 229.685 256.647C229.767 256.796 229.808 256.983 229.808 257.207V259.465H229.044V259.001H229.017C228.969 259.095 228.901 259.183 228.813 259.265C228.727 259.345 228.618 259.411 228.486 259.46C228.355 259.509 228.202 259.533 228.027 259.533ZM228.233 258.949C228.393 258.949 228.531 258.917 228.648 258.854C228.766 258.79 228.856 258.705 228.919 258.599C228.983 258.494 229.015 258.379 229.015 258.255V257.857C228.99 257.877 228.948 257.896 228.888 257.914C228.829 257.932 228.763 257.947 228.69 257.96C228.617 257.973 228.544 257.985 228.473 257.995C228.401 258.006 228.339 258.014 228.286 258.022C228.167 258.038 228.061 258.064 227.967 258.101C227.874 258.137 227.8 258.189 227.746 258.255C227.691 258.319 227.664 258.402 227.664 258.505C227.664 258.651 227.718 258.762 227.825 258.837C227.932 258.911 228.068 258.949 228.233 258.949ZM232.08 259.531C231.743 259.531 231.453 259.457 231.212 259.309C230.972 259.161 230.786 258.957 230.656 258.696C230.527 258.434 230.463 258.132 230.463 257.791C230.463 257.448 230.529 257.146 230.66 256.884C230.792 256.62 230.978 256.415 231.218 256.269C231.46 256.121 231.746 256.047 232.075 256.047C232.349 256.047 232.591 256.097 232.802 256.198C233.015 256.298 233.184 256.439 233.31 256.622C233.436 256.804 233.507 257.016 233.525 257.259H232.765C232.734 257.097 232.661 256.961 232.545 256.853C232.431 256.743 232.278 256.688 232.086 256.688C231.924 256.688 231.781 256.732 231.658 256.82C231.535 256.907 231.439 257.031 231.37 257.194C231.303 257.356 231.269 257.551 231.269 257.778C231.269 258.008 231.303 258.205 231.37 258.371C231.437 258.535 231.532 258.662 231.653 258.751C231.776 258.839 231.921 258.883 232.086 258.883C232.203 258.883 232.308 258.861 232.4 258.817C232.494 258.771 232.572 258.706 232.635 258.621C232.698 258.536 232.741 258.433 232.765 258.312H233.525C233.506 258.55 233.436 258.762 233.314 258.946C233.192 259.129 233.027 259.273 232.818 259.377C232.608 259.479 232.362 259.531 232.08 259.531ZM234.213 259.465V254.966H235.008V256.649H235.041C235.082 256.567 235.14 256.48 235.215 256.387C235.289 256.294 235.39 256.214 235.518 256.148C235.645 256.081 235.808 256.047 236.005 256.047C236.266 256.047 236.501 256.114 236.711 256.247C236.921 256.379 237.088 256.574 237.211 256.833C237.336 257.091 237.398 257.407 237.398 257.782C237.398 258.153 237.337 258.468 237.216 258.727C237.094 258.986 236.929 259.184 236.719 259.32C236.51 259.456 236.273 259.524 236.008 259.524C235.814 259.524 235.654 259.492 235.527 259.428C235.399 259.363 235.297 259.285 235.219 259.195C235.143 259.102 235.084 259.015 235.041 258.933H234.995V259.465H234.213ZM234.993 257.778C234.993 257.996 235.024 258.187 235.085 258.351C235.148 258.515 235.238 258.643 235.355 258.736C235.474 258.826 235.617 258.872 235.786 258.872C235.962 258.872 236.109 258.825 236.227 258.731C236.346 258.636 236.435 258.506 236.495 258.342C236.557 258.177 236.588 257.989 236.588 257.778C236.588 257.568 236.558 257.382 236.497 257.22C236.437 257.057 236.348 256.93 236.229 256.838C236.111 256.745 235.963 256.699 235.786 256.699C235.616 256.699 235.472 256.744 235.353 256.833C235.234 256.923 235.144 257.048 235.083 257.209C235.023 257.37 234.993 257.56 234.993 257.778ZM239.546 259.531C239.216 259.531 238.931 259.458 238.689 259.313C238.448 259.168 238.26 258.965 238.127 258.705C237.995 258.444 237.929 258.14 237.929 257.791C237.929 257.442 237.995 257.137 238.127 256.875C238.26 256.613 238.448 256.409 238.689 256.264C238.931 256.119 239.216 256.047 239.546 256.047C239.875 256.047 240.161 256.119 240.403 256.264C240.644 256.409 240.831 256.613 240.963 256.875C241.096 257.137 241.163 257.442 241.163 257.791C241.163 258.14 241.096 258.444 240.963 258.705C240.831 258.965 240.644 259.168 240.403 259.313C240.161 259.458 239.875 259.531 239.546 259.531ZM239.55 258.894C239.729 258.894 239.878 258.845 239.998 258.747C240.118 258.647 240.208 258.514 240.266 258.347C240.326 258.18 240.356 257.994 240.356 257.789C240.356 257.582 240.326 257.396 240.266 257.229C240.208 257.06 240.118 256.926 239.998 256.827C239.878 256.727 239.729 256.677 239.55 256.677C239.367 256.677 239.215 256.727 239.093 256.827C238.973 256.926 238.883 257.06 238.823 257.229C238.765 257.396 238.735 257.582 238.735 257.789C238.735 257.994 238.765 258.18 238.823 258.347C238.883 258.514 238.973 258.647 239.093 258.747C239.215 258.845 239.367 258.894 239.55 258.894ZM243.309 259.531C242.98 259.531 242.694 259.458 242.453 259.313C242.211 259.168 242.023 258.965 241.89 258.705C241.758 258.444 241.693 258.14 241.693 257.791C241.693 257.442 241.758 257.137 241.89 256.875C242.023 256.613 242.211 256.409 242.453 256.264C242.694 256.119 242.98 256.047 243.309 256.047C243.639 256.047 243.924 256.119 244.166 256.264C244.408 256.409 244.594 256.613 244.726 256.875C244.859 257.137 244.926 257.442 244.926 257.791C244.926 258.14 244.859 258.444 244.726 258.705C244.594 258.965 244.408 259.168 244.166 259.313C243.924 259.458 243.639 259.531 243.309 259.531ZM243.314 258.894C243.492 258.894 243.642 258.845 243.762 258.747C243.882 258.647 243.971 258.514 244.03 258.347C244.09 258.18 244.12 257.994 244.12 257.789C244.12 257.582 244.09 257.396 244.03 257.229C243.971 257.06 243.882 256.926 243.762 256.827C243.642 256.727 243.492 256.677 243.314 256.677C243.131 256.677 242.978 256.727 242.857 256.827C242.737 256.926 242.647 257.06 242.587 257.229C242.528 257.396 242.499 257.582 242.499 257.789C242.499 257.994 242.528 258.18 242.587 258.347C242.647 258.514 242.737 258.647 242.857 258.747C242.978 258.845 243.131 258.894 243.314 258.894ZM246.326 258.406L246.324 257.446H246.451L247.664 256.091H248.593L247.101 257.751H246.936L246.326 258.406ZM245.601 259.465V254.966H246.396V259.465H245.601ZM247.718 259.465L246.62 257.929L247.156 257.369L248.67 259.465H247.718ZM250.692 259.465V254.966H252.379C252.725 254.966 253.015 255.031 253.249 255.159C253.485 255.288 253.663 255.466 253.783 255.691C253.904 255.915 253.965 256.17 253.965 256.455C253.965 256.744 253.904 257 253.783 257.224C253.661 257.448 253.482 257.625 253.245 257.754C253.007 257.881 252.715 257.945 252.368 257.945H251.25V257.275H252.258C252.46 257.275 252.626 257.24 252.755 257.169C252.884 257.099 252.979 257.002 253.04 256.879C253.103 256.756 253.135 256.615 253.135 256.455C253.135 256.296 253.103 256.155 253.04 256.034C252.979 255.912 252.883 255.818 252.753 255.75C252.624 255.682 252.457 255.647 252.254 255.647H251.507V259.465H250.692ZM254.638 259.465V256.091H255.409V256.653H255.444C255.505 256.458 255.611 256.308 255.76 256.203C255.911 256.096 256.083 256.042 256.276 256.042C256.32 256.042 256.369 256.045 256.424 256.049C256.479 256.052 256.525 256.057 256.562 256.064V256.796C256.528 256.784 256.475 256.774 256.402 256.765C256.33 256.755 256.26 256.75 256.193 256.75C256.048 256.75 255.918 256.781 255.802 256.844C255.688 256.906 255.598 256.991 255.532 257.101C255.466 257.211 255.433 257.338 255.433 257.481V259.465H254.638ZM258.423 259.531C258.094 259.531 257.808 259.458 257.566 259.313C257.325 259.168 257.137 258.965 257.004 258.705C256.872 258.444 256.806 258.14 256.806 257.791C256.806 257.442 256.872 257.137 257.004 256.875C257.137 256.613 257.325 256.409 257.566 256.264C257.808 256.119 258.094 256.047 258.423 256.047C258.753 256.047 259.038 256.119 259.28 256.264C259.521 256.409 259.708 256.613 259.84 256.875C259.973 257.137 260.04 257.442 260.04 257.791C260.04 258.14 259.973 258.444 259.84 258.705C259.708 258.965 259.521 259.168 259.28 259.313C259.038 259.458 258.753 259.531 258.423 259.531ZM258.428 258.894C258.606 258.894 258.756 258.845 258.876 258.747C258.996 258.647 259.085 258.514 259.144 258.347C259.204 258.18 259.234 257.994 259.234 257.789C259.234 257.582 259.204 257.396 259.144 257.229C259.085 257.06 258.996 256.926 258.876 256.827C258.756 256.727 258.606 256.677 258.428 256.677C258.244 256.677 258.092 256.727 257.971 256.827C257.851 256.926 257.76 257.06 257.7 257.229C257.642 257.396 257.613 257.582 257.613 257.789C257.613 257.994 257.642 258.18 257.7 258.347C257.76 258.514 257.851 258.647 257.971 258.747C258.092 258.845 258.244 258.894 258.428 258.894Z" fill="#A0AEC0"/>
<path d="M0.367188 263.028C0.367188 262.503 0.793255 262.077 1.31883 262.077H479.046C479.571 262.077 479.997 262.503 479.997 263.028V270.641H0.367188V263.028Z" fill="#A3ACB1"/>
<path d="M0.367188 263.028C0.367188 262.503 0.793255 262.077 1.31883 262.077H479.046C479.571 262.077 479.997 262.503 479.997 263.028V270.641H0.367188V263.028Z" fill="url(#paint0_linear_454_3424)"/>
<path d="M0.367188 270.642H479.997L470.312 272.595C457.925 275.093 445.321 276.351 432.684 276.351H46.9545C33.0677 276.351 19.2225 274.832 5.66629 271.819L0.367188 270.642Z" fill="#647279"/>
<path d="M0.367188 270.642H479.997L470.312 272.595C457.925 275.093 445.321 276.351 432.684 276.351H46.9545C33.0677 276.351 19.2225 274.832 5.66629 271.819L0.367188 270.642Z" fill="url(#paint1_linear_454_3424)"/>
<path fill-rule="evenodd" clip-rule="evenodd" d="M200.705 262.077C200.95 265.797 204.045 268.738 207.827 268.738H273.015C276.797 268.738 279.892 265.797 280.136 262.077H200.705Z" fill="#96A1A8"/>
<path fill-rule="evenodd" clip-rule="evenodd" d="M200.705 262.077C200.95 265.797 204.045 268.738 207.827 268.738H273.015C276.797 268.738 279.892 265.797 280.136 262.077H200.705Z" fill="url(#paint2_linear_454_3424)"/>
<rect width="364.563" height="236.966" transform="translate(57.8301 16.0464)" fill="white"/>
<rect x="330.113" y="223.504" width="53.83" height="11.3926" rx="5.69629" fill="black"/>
<path d="M337.307 231.201H336.029V227.058H337.364C337.766 227.058 338.11 227.141 338.396 227.307C338.682 227.471 338.901 227.708 339.053 228.017C339.206 228.324 339.282 228.692 339.282 229.121C339.282 229.553 339.205 229.924 339.051 230.236C338.897 230.546 338.674 230.785 338.38 230.952C338.086 231.118 337.728 231.201 337.307 231.201ZM336.531 230.756H337.275C337.618 230.756 337.901 230.69 338.127 230.557C338.352 230.425 338.52 230.237 338.63 229.993C338.741 229.749 338.796 229.458 338.796 229.121C338.796 228.787 338.742 228.499 338.632 228.257C338.523 228.015 338.36 227.829 338.143 227.699C337.926 227.568 337.655 227.503 337.332 227.503H336.531V230.756ZM341.321 231.265C341.04 231.265 340.794 231.199 340.582 231.065C340.372 230.932 340.208 230.745 340.089 230.505C339.972 230.265 339.913 229.984 339.913 229.663C339.913 229.34 339.972 229.057 340.089 228.816C340.208 228.574 340.372 228.387 340.582 228.253C340.794 228.12 341.04 228.053 341.321 228.053C341.601 228.053 341.847 228.12 342.057 228.253C342.269 228.387 342.433 228.574 342.551 228.816C342.669 229.057 342.729 229.34 342.729 229.663C342.729 229.984 342.669 230.265 342.551 230.505C342.433 230.745 342.269 230.932 342.057 231.065C341.847 231.199 341.601 231.265 341.321 231.265ZM341.321 230.837C341.534 230.837 341.709 230.782 341.847 230.673C341.984 230.563 342.086 230.42 342.152 230.242C342.218 230.064 342.251 229.871 342.251 229.663C342.251 229.456 342.218 229.262 342.152 229.083C342.086 228.903 341.984 228.758 341.847 228.648C341.709 228.537 341.534 228.482 341.321 228.482C341.108 228.482 340.932 228.537 340.795 228.648C340.657 228.758 340.555 228.903 340.489 229.083C340.423 229.262 340.39 229.456 340.39 229.663C340.39 229.871 340.423 230.064 340.489 230.242C340.555 230.42 340.657 230.563 340.795 230.673C340.932 230.782 341.108 230.837 341.321 230.837ZM344.056 231.201L343.109 228.094H343.611L344.282 230.472H344.315L344.978 228.094H345.488L346.143 230.464H346.176L346.847 228.094H347.349L346.402 231.201H345.933L345.253 228.814H345.205L344.525 231.201H344.056ZM348.457 229.332V231.201H347.98V228.094H348.441V228.579H348.482C348.554 228.421 348.665 228.295 348.813 228.199C348.962 228.102 349.153 228.053 349.388 228.053C349.598 228.053 349.782 228.096 349.94 228.183C350.098 228.268 350.221 228.397 350.308 228.571C350.396 228.744 350.44 228.962 350.44 229.226V231.201H349.962V229.259C349.962 229.015 349.899 228.825 349.772 228.688C349.645 228.551 349.471 228.482 349.25 228.482C349.098 228.482 348.962 228.515 348.842 228.581C348.723 228.647 348.629 228.744 348.56 228.87C348.492 228.997 348.457 229.151 348.457 229.332ZM351.789 227.058V231.201H351.312V227.058H351.789ZM353.926 231.265C353.646 231.265 353.399 231.199 353.188 231.065C352.977 230.932 352.813 230.745 352.694 230.505C352.577 230.265 352.518 229.984 352.518 229.663C352.518 229.34 352.577 229.057 352.694 228.816C352.813 228.574 352.977 228.387 353.188 228.253C353.399 228.12 353.646 228.053 353.926 228.053C354.207 228.053 354.452 228.12 354.662 228.253C354.874 228.387 355.039 228.574 355.156 228.816C355.275 229.057 355.334 229.34 355.334 229.663C355.334 229.984 355.275 230.265 355.156 230.505C355.039 230.745 354.874 230.932 354.662 231.065C354.452 231.199 354.207 231.265 353.926 231.265ZM353.926 230.837C354.139 230.837 354.314 230.782 354.452 230.673C354.589 230.563 354.691 230.42 354.757 230.242C354.823 230.064 354.857 229.871 354.857 229.663C354.857 229.456 354.823 229.262 354.757 229.083C354.691 228.903 354.589 228.758 354.452 228.648C354.314 228.537 354.139 228.482 353.926 228.482C353.713 228.482 353.538 228.537 353.4 228.648C353.263 228.758 353.161 228.903 353.095 229.083C353.029 229.262 352.995 229.456 352.995 229.663C352.995 229.871 353.029 230.064 353.095 230.242C353.161 230.42 353.263 230.563 353.4 230.673C353.538 230.782 353.713 230.837 353.926 230.837ZM356.977 231.274C356.78 231.274 356.601 231.236 356.441 231.162C356.28 231.087 356.153 230.978 356.059 230.837C355.964 230.694 355.917 230.521 355.917 230.319C355.917 230.141 355.952 229.996 356.022 229.886C356.092 229.774 356.186 229.686 356.303 229.623C356.421 229.559 356.55 229.512 356.692 229.481C356.835 229.449 356.978 229.423 357.123 229.404C357.311 229.38 357.464 229.362 357.582 229.35C357.7 229.336 357.787 229.314 357.841 229.283C357.896 229.252 357.924 229.198 357.924 229.121V229.105C357.924 228.905 357.869 228.75 357.76 228.64C357.652 228.529 357.488 228.474 357.268 228.474C357.04 228.474 356.862 228.524 356.732 228.624C356.603 228.723 356.512 228.83 356.459 228.943L356.006 228.781C356.087 228.593 356.195 228.446 356.33 228.34C356.466 228.234 356.614 228.16 356.775 228.118C356.936 228.075 357.096 228.053 357.252 228.053C357.352 228.053 357.466 228.065 357.596 228.09C357.727 228.112 357.853 228.16 357.974 228.233C358.097 228.306 358.199 228.416 358.28 228.563C358.361 228.71 358.401 228.907 358.401 229.154V231.201H357.924V230.78H357.899C357.867 230.847 357.813 230.92 357.738 230.996C357.662 231.073 357.562 231.139 357.436 231.193C357.311 231.247 357.158 231.274 356.977 231.274ZM357.05 230.845C357.239 230.845 357.398 230.808 357.527 230.733C357.658 230.659 357.756 230.563 357.822 230.446C357.89 230.329 357.924 230.205 357.924 230.076V229.639C357.903 229.663 357.859 229.686 357.79 229.706C357.723 229.725 357.644 229.742 357.555 229.756C357.468 229.77 357.382 229.782 357.299 229.793C357.216 229.802 357.15 229.81 357.098 229.817C356.974 229.833 356.858 229.86 356.75 229.896C356.644 229.931 356.558 229.984 356.491 230.056C356.427 230.126 356.394 230.222 356.394 230.343C356.394 230.509 356.456 230.634 356.578 230.719C356.703 230.803 356.86 230.845 357.05 230.845ZM360.446 231.265C360.187 231.265 359.958 231.2 359.76 231.069C359.562 230.937 359.407 230.751 359.295 230.511C359.183 230.27 359.127 229.984 359.127 229.655C359.127 229.329 359.183 229.046 359.295 228.806C359.407 228.566 359.562 228.38 359.762 228.249C359.961 228.119 360.192 228.053 360.454 228.053C360.656 228.053 360.816 228.087 360.933 228.154C361.052 228.22 361.142 228.296 361.204 228.381C361.268 228.464 361.317 228.533 361.352 228.587H361.392V227.058H361.87V231.201H361.408V230.723H361.352C361.317 230.78 361.267 230.851 361.202 230.938C361.137 231.023 361.045 231.099 360.925 231.166C360.805 231.232 360.645 231.265 360.446 231.265ZM360.51 230.837C360.702 230.837 360.864 230.787 360.996 230.687C361.128 230.586 361.228 230.446 361.297 230.268C361.366 230.089 361.4 229.882 361.4 229.647C361.4 229.415 361.367 229.212 361.299 229.038C361.232 228.863 361.132 228.727 361 228.63C360.868 228.531 360.705 228.482 360.51 228.482C360.308 228.482 360.139 228.534 360.005 228.638C359.871 228.74 359.771 228.88 359.703 229.056C359.637 229.232 359.604 229.429 359.604 229.647C359.604 229.868 359.638 230.069 359.705 230.25C359.774 230.429 359.875 230.572 360.009 230.679C360.144 230.784 360.311 230.837 360.51 230.837ZM367.811 228.353H367.309C367.279 228.208 367.227 228.081 367.153 227.972C367.08 227.863 366.991 227.771 366.886 227.697C366.782 227.622 366.667 227.565 366.54 227.527C366.414 227.489 366.281 227.471 366.144 227.471C365.893 227.471 365.666 227.534 365.462 227.661C365.26 227.787 365.099 227.974 364.979 228.221C364.86 228.468 364.801 228.771 364.801 229.129C364.801 229.488 364.86 229.791 364.979 230.038C365.099 230.284 365.26 230.471 365.462 230.598C365.666 230.725 365.893 230.788 366.144 230.788C366.281 230.788 366.414 230.769 366.54 230.731C366.667 230.694 366.782 230.638 366.886 230.563C366.991 230.488 367.08 230.396 367.153 230.286C367.227 230.176 367.279 230.049 367.309 229.906H367.811C367.773 230.118 367.704 230.307 367.604 230.474C367.505 230.642 367.381 230.784 367.232 230.901C367.084 231.017 366.917 231.106 366.733 231.166C366.549 231.227 366.353 231.257 366.144 231.257C365.791 231.257 365.476 231.171 365.201 230.998C364.926 230.826 364.71 230.58 364.552 230.262C364.394 229.944 364.315 229.566 364.315 229.129C364.315 228.692 364.394 228.315 364.552 227.997C364.71 227.678 364.926 227.433 365.201 227.26C365.476 227.088 365.791 227.001 366.144 227.001C366.353 227.001 366.549 227.032 366.733 227.092C366.917 227.153 367.084 227.242 367.232 227.359C367.381 227.475 367.505 227.617 367.604 227.784C367.704 227.95 367.773 228.139 367.811 228.353ZM369.819 231.265C369.538 231.265 369.292 231.199 369.081 231.065C368.87 230.932 368.706 230.745 368.587 230.505C368.47 230.265 368.411 229.984 368.411 229.663C368.411 229.34 368.47 229.057 368.587 228.816C368.706 228.574 368.87 228.387 369.081 228.253C369.292 228.12 369.538 228.053 369.819 228.053C370.099 228.053 370.345 228.12 370.555 228.253C370.767 228.387 370.931 228.574 371.049 228.816C371.167 229.057 371.227 229.34 371.227 229.663C371.227 229.984 371.167 230.265 371.049 230.505C370.931 230.745 370.767 230.932 370.555 231.065C370.345 231.199 370.099 231.265 369.819 231.265ZM369.819 230.837C370.032 230.837 370.207 230.782 370.345 230.673C370.482 230.563 370.584 230.42 370.65 230.242C370.716 230.064 370.749 229.871 370.749 229.663C370.749 229.456 370.716 229.262 370.65 229.083C370.584 228.903 370.482 228.758 370.345 228.648C370.207 228.537 370.032 228.482 369.819 228.482C369.606 228.482 369.43 228.537 369.293 228.648C369.155 228.758 369.054 228.903 368.987 229.083C368.921 229.262 368.888 229.456 368.888 229.663C368.888 229.871 368.921 230.064 368.987 230.242C369.054 230.42 369.155 230.563 369.293 230.673C369.43 230.782 369.606 230.837 369.819 230.837ZM373.129 231.265C372.87 231.265 372.641 231.2 372.443 231.069C372.245 230.937 372.09 230.751 371.978 230.511C371.866 230.27 371.81 229.984 371.81 229.655C371.81 229.329 371.866 229.046 371.978 228.806C372.09 228.566 372.245 228.38 372.445 228.249C372.645 228.119 372.875 228.053 373.137 228.053C373.339 228.053 373.499 228.087 373.616 228.154C373.735 228.22 373.825 228.296 373.887 228.381C373.951 228.464 374 228.533 374.035 228.587H374.075V227.058H374.553V231.201H374.092V230.723H374.035C374 230.78 373.95 230.851 373.885 230.938C373.821 231.023 373.728 231.099 373.608 231.166C373.488 231.232 373.328 231.265 373.129 231.265ZM373.193 230.837C373.385 230.837 373.547 230.787 373.679 230.687C373.811 230.586 373.912 230.446 373.98 230.268C374.049 230.089 374.084 229.882 374.084 229.647C374.084 229.415 374.05 229.212 373.982 229.038C373.915 228.863 373.815 228.727 373.683 228.63C373.551 228.531 373.388 228.482 373.193 228.482C372.991 228.482 372.823 228.534 372.688 228.638C372.554 228.74 372.454 228.88 372.386 229.056C372.32 229.232 372.287 229.429 372.287 229.647C372.287 229.868 372.321 230.069 372.388 230.25C372.457 230.429 372.558 230.572 372.692 230.679C372.827 230.784 372.994 230.837 373.193 230.837ZM376.796 231.265C376.497 231.265 376.239 231.199 376.021 231.067C375.806 230.934 375.639 230.748 375.522 230.509C375.406 230.269 375.348 229.99 375.348 229.671C375.348 229.353 375.406 229.073 375.522 228.83C375.639 228.586 375.802 228.396 376.011 228.259C376.222 228.122 376.467 228.053 376.748 228.053C376.909 228.053 377.069 228.08 377.227 228.134C377.385 228.188 377.528 228.276 377.658 228.397C377.787 228.517 377.89 228.676 377.967 228.874C378.044 229.073 378.083 229.317 378.083 229.607V229.809H375.688V229.396H377.597C377.597 229.221 377.562 229.065 377.492 228.927C377.423 228.789 377.325 228.681 377.197 228.601C377.07 228.522 376.92 228.482 376.748 228.482C376.557 228.482 376.393 228.529 376.254 228.624C376.116 228.717 376.011 228.838 375.936 228.988C375.862 229.137 375.825 229.298 375.825 229.469V229.744C375.825 229.979 375.866 230.178 375.947 230.341C376.029 230.503 376.143 230.626 376.288 230.711C376.434 230.795 376.603 230.837 376.796 230.837C376.922 230.837 377.035 230.819 377.136 230.784C377.238 230.748 377.327 230.694 377.401 230.622C377.475 230.549 377.532 230.459 377.573 230.351L378.034 230.481C377.986 230.637 377.904 230.775 377.789 230.893C377.675 231.011 377.533 231.102 377.365 231.168C377.196 231.233 377.007 231.265 376.796 231.265Z" fill="white"/>
<rect x="125.502" y="62.1862" width="229.216" height="154.188" fill="white" stroke="black" stroke-width="0.344169"/>
<path d="M103.598 46.7167C103.598 47.2713 103.378 47.8032 102.986 48.1954C102.594 48.5876 102.062 48.8079 101.507 48.8079C100.953 48.8079 100.421 48.5876 100.029 48.1954C99.6363 47.8032 99.416 47.2713 99.416 46.7167C99.416 46.1621 99.6363 45.6302 100.029 45.238C100.421 44.8458 100.953 44.6255 101.507 44.6255C102.062 44.6255 102.594 44.8458 102.986 45.238C103.378 45.6302 103.598 46.1621 103.598 46.7167Z" fill="black"/>
<path fill-rule="evenodd" clip-rule="evenodd" d="M101.294 52.9861C98.5057 52.8742 96.2793 50.578 96.2793 47.7622C96.2793 44.8748 98.6199 42.5342 101.507 42.5342C104.395 42.5342 106.735 44.8748 106.735 47.7622C106.735 50.6497 104.395 52.9903 101.507 52.9903C101.483 52.9904 101.46 52.9904 101.436 52.9903C101.388 52.9903 101.341 52.9887 101.294 52.9861ZM98.1525 51.0611C98.1134 50.9489 98.1001 50.8293 98.1136 50.7112C98.127 50.5931 98.1669 50.4795 98.2303 50.3789C98.2936 50.2784 98.3788 50.1933 98.4796 50.1302C98.5803 50.0671 98.6939 50.0274 98.812 50.0142C100.85 49.7886 102.177 49.809 104.205 50.0189C104.324 50.0312 104.437 50.0704 104.538 50.1334C104.639 50.1964 104.724 50.2816 104.787 50.3824C104.85 50.4833 104.889 50.5973 104.902 50.7155C104.914 50.8338 104.899 50.9534 104.858 51.065C105.727 50.1857 106.214 48.9986 106.213 47.7622C106.213 45.1636 104.106 43.057 101.507 43.057C98.9087 43.057 96.8021 45.1636 96.8021 47.7622C96.8021 49.0473 97.3173 50.2121 98.1525 51.0611Z" fill="black"/>
<path d="M112.562 46.0278H113.107V49.0115C113.107 49.3196 113.035 49.5946 112.889 49.8367C112.746 50.0772 112.543 50.2672 112.28 50.4066C112.017 50.5444 111.709 50.6134 111.356 50.6134C111.002 50.6134 110.694 50.5444 110.432 50.4066C110.169 50.2672 109.965 50.0772 109.82 49.8367C109.676 49.5946 109.604 49.3196 109.604 49.0115V46.0278H110.15V48.9675C110.15 49.1875 110.198 49.3834 110.295 49.555C110.392 49.7252 110.53 49.8594 110.709 49.9577C110.889 50.0545 111.105 50.1029 111.356 50.1029C111.607 50.1029 111.822 50.0545 112.003 49.9577C112.183 49.8594 112.321 49.7252 112.416 49.555C112.513 49.3834 112.562 49.1875 112.562 48.9675V46.0278ZM116.521 47.9113L116.054 48.0433C116.025 47.9656 115.982 47.8901 115.924 47.8167C115.869 47.7419 115.792 47.6803 115.695 47.6319C115.599 47.5835 115.475 47.5593 115.324 47.5593C115.117 47.5593 114.944 47.6069 114.807 47.7023C114.67 47.7962 114.602 47.9157 114.602 48.061C114.602 48.19 114.649 48.292 114.743 48.3668C114.837 48.4416 114.983 48.504 115.183 48.5538L115.684 48.6771C115.987 48.7504 116.212 48.8626 116.36 49.0137C116.508 49.1633 116.582 49.3562 116.582 49.5924C116.582 49.7861 116.526 49.9591 116.415 50.1117C116.305 50.2643 116.151 50.3846 115.953 50.4726C115.755 50.5606 115.525 50.6046 115.262 50.6046C114.917 50.6046 114.632 50.5298 114.406 50.3802C114.18 50.2305 114.037 50.012 113.977 49.7244L114.47 49.6012C114.517 49.7831 114.606 49.9195 114.736 50.0105C114.868 50.1014 115.041 50.1469 115.253 50.1469C115.495 50.1469 115.687 50.0956 115.83 49.9929C115.973 49.8887 116.045 49.764 116.045 49.6188C116.045 49.5015 116.004 49.4032 115.922 49.324C115.84 49.2433 115.714 49.1831 115.544 49.1435L114.98 49.0115C114.671 48.9382 114.443 48.8245 114.298 48.6705C114.154 48.515 114.083 48.3206 114.083 48.0874C114.083 47.8967 114.136 47.728 114.243 47.5813C114.352 47.4346 114.499 47.3194 114.686 47.2358C114.873 47.1522 115.086 47.1104 115.324 47.1104C115.658 47.1104 115.921 47.1837 116.111 47.3304C116.304 47.4771 116.44 47.6708 116.521 47.9113ZM118.781 50.6046C118.455 50.6046 118.174 50.5327 117.938 50.389C117.704 50.2437 117.522 50.0413 117.395 49.7816C117.269 49.5205 117.205 49.2169 117.205 48.8707C117.205 48.5245 117.269 48.2194 117.395 47.9553C117.522 47.6898 117.7 47.483 117.927 47.3348C118.156 47.1852 118.423 47.1104 118.728 47.1104C118.904 47.1104 119.078 47.1397 119.25 47.1984C119.421 47.2571 119.578 47.3524 119.718 47.4845C119.859 47.615 119.971 47.7881 120.055 48.0037C120.139 48.2194 120.18 48.4849 120.18 48.8003V49.0203H117.575V48.5714H119.652C119.652 48.3807 119.614 48.2106 119.538 48.061C119.463 47.9113 119.356 47.7932 119.217 47.7067C119.079 47.6201 118.916 47.5769 118.728 47.5769C118.521 47.5769 118.342 47.6282 118.191 47.7309C118.042 47.8321 117.926 47.9641 117.846 48.127C117.765 48.2898 117.725 48.4644 117.725 48.6507V48.9499C117.725 49.2052 117.769 49.4215 117.857 49.599C117.946 49.775 118.07 49.9093 118.229 50.0017C118.387 50.0926 118.571 50.1381 118.781 50.1381C118.917 50.1381 119.041 50.119 119.151 50.0809C119.262 50.0413 119.358 49.9826 119.439 49.9049C119.52 49.8257 119.582 49.7274 119.626 49.61L120.128 49.7508C120.075 49.921 119.986 50.0706 119.861 50.1997C119.737 50.3273 119.583 50.4271 119.399 50.499C119.216 50.5694 119.01 50.6046 118.781 50.6046ZM120.97 50.5342V47.1544H121.472V47.6649H121.507C121.569 47.4977 121.68 47.362 121.842 47.2578C122.003 47.1537 122.185 47.1016 122.387 47.1016C122.426 47.1016 122.473 47.1023 122.53 47.1038C122.588 47.1053 122.631 47.1075 122.66 47.1104V47.6385C122.643 47.6341 122.602 47.6275 122.539 47.6187C122.478 47.6084 122.412 47.6033 122.343 47.6033C122.179 47.6033 122.032 47.6377 121.903 47.7067C121.776 47.7742 121.674 47.8681 121.6 47.9883C121.526 48.1072 121.49 48.2429 121.49 48.3954V50.5342H120.97ZM125.608 50.5342V51.0183H122.792V50.5342H125.608ZM129.721 46.0278V50.5342H129.193L126.738 46.996H126.694V50.5342H126.148V46.0278H126.676L129.14 49.5748H129.184V46.0278H129.721ZM131.737 50.6134C131.523 50.6134 131.329 50.5731 131.154 50.4924C130.98 50.4102 130.841 50.2921 130.738 50.1381C130.636 49.9826 130.584 49.7949 130.584 49.5748C130.584 49.3812 130.622 49.2242 130.699 49.1039C130.775 48.9822 130.877 48.8868 131.005 48.8179C131.132 48.7489 131.273 48.6976 131.427 48.6639C131.583 48.6287 131.739 48.6008 131.896 48.5802C132.101 48.5538 132.268 48.534 132.395 48.5208C132.524 48.5062 132.618 48.482 132.677 48.4482C132.737 48.4145 132.767 48.3558 132.767 48.2722V48.2546C132.767 48.0375 132.708 47.8688 132.589 47.7485C132.472 47.6282 132.293 47.5681 132.054 47.5681C131.806 47.5681 131.612 47.6223 131.471 47.7309C131.33 47.8394 131.231 47.9553 131.174 48.0786L130.681 47.9025C130.769 47.6972 130.887 47.5373 131.033 47.4228C131.181 47.307 131.343 47.2263 131.517 47.1808C131.693 47.1339 131.866 47.1104 132.037 47.1104C132.145 47.1104 132.27 47.1236 132.411 47.15C132.553 47.1749 132.69 47.227 132.822 47.3062C132.956 47.3854 133.066 47.505 133.154 47.6649C133.242 47.8248 133.286 48.0389 133.286 48.3074V50.5342H132.767V50.0765H132.741C132.706 50.1498 132.647 50.2283 132.565 50.3119C132.483 50.3956 132.373 50.4667 132.237 50.5254C132.1 50.5841 131.934 50.6134 131.737 50.6134ZM131.817 50.1469C132.022 50.1469 132.195 50.1066 132.336 50.0259C132.478 49.9452 132.585 49.8411 132.657 49.7134C132.73 49.5858 132.767 49.4516 132.767 49.3108V48.8355C132.745 48.8619 132.697 48.8861 132.622 48.9081C132.549 48.9286 132.463 48.947 132.367 48.9631C132.271 48.9778 132.178 48.991 132.087 49.0027C131.998 49.013 131.925 49.0218 131.869 49.0291C131.734 49.0467 131.608 49.0753 131.491 49.1149C131.375 49.1531 131.281 49.211 131.209 49.2888C131.139 49.365 131.104 49.4692 131.104 49.6012C131.104 49.7816 131.17 49.9181 131.304 50.0105C131.439 50.1014 131.61 50.1469 131.817 50.1469ZM134.234 50.5342V47.1544H134.736V47.6825H134.78C134.85 47.5021 134.964 47.362 135.121 47.2622C135.278 47.161 135.466 47.1104 135.686 47.1104C135.909 47.1104 136.095 47.161 136.243 47.2622C136.393 47.362 136.509 47.5021 136.593 47.6825H136.628C136.715 47.5079 136.845 47.3693 137.018 47.2666C137.191 47.1625 137.398 47.1104 137.64 47.1104C137.943 47.1104 138.19 47.205 138.382 47.3942C138.574 47.582 138.67 47.8747 138.67 48.2722V50.5342H138.151V48.2722C138.151 48.0228 138.083 47.8446 137.946 47.7375C137.81 47.6304 137.649 47.5769 137.464 47.5769C137.227 47.5769 137.043 47.6487 136.912 47.7925C136.782 47.9348 136.716 48.1152 136.716 48.3338V50.5342H136.188V48.2194C136.188 48.0272 136.126 47.8725 136.001 47.7551C135.876 47.6363 135.716 47.5769 135.519 47.5769C135.384 47.5769 135.258 47.6128 135.141 47.6847C135.025 47.7566 134.931 47.8563 134.859 47.9839C134.789 48.1101 134.754 48.2561 134.754 48.4218V50.5342H134.234ZM141.037 50.6046C140.711 50.6046 140.43 50.5327 140.194 50.389C139.959 50.2437 139.778 50.0413 139.65 49.7816C139.524 49.5205 139.461 49.2169 139.461 48.8707C139.461 48.5245 139.524 48.2194 139.65 47.9553C139.778 47.6898 139.956 47.483 140.183 47.3348C140.412 47.1852 140.679 47.1104 140.984 47.1104C141.16 47.1104 141.334 47.1397 141.505 47.1984C141.677 47.2571 141.833 47.3524 141.974 47.4845C142.115 47.615 142.227 47.7881 142.311 48.0037C142.394 48.2194 142.436 48.4849 142.436 48.8003V49.0203H139.831V48.5714H141.908C141.908 48.3807 141.87 48.2106 141.794 48.061C141.719 47.9113 141.612 47.7932 141.472 47.7067C141.334 47.6201 141.172 47.5769 140.984 47.5769C140.777 47.5769 140.598 47.6282 140.447 47.7309C140.297 47.8321 140.182 47.9641 140.102 48.127C140.021 48.2898 139.981 48.4644 139.981 48.6507V48.9499C139.981 49.2052 140.025 49.4215 140.113 49.599C140.202 49.775 140.326 49.9093 140.484 50.0017C140.643 50.0926 140.827 50.1381 141.037 50.1381C141.173 50.1381 141.296 50.119 141.406 50.0809C141.518 50.0413 141.614 49.9826 141.695 49.9049C141.775 49.8257 141.838 49.7274 141.882 49.61L142.383 49.7508C142.331 49.921 142.242 50.0706 142.117 50.1997C141.992 50.3273 141.838 50.4271 141.655 50.499C141.472 50.5694 141.266 50.6046 141.037 50.6046Z" fill="black"/>
<path d="M379.955 66.2863C379.955 66.8906 379.715 67.4702 379.288 67.8975C378.861 68.3248 378.281 68.5648 377.677 68.5648C377.073 68.5648 376.493 68.3248 376.066 67.8975C375.638 67.4702 375.398 66.8906 375.398 66.2863C375.398 65.682 375.638 65.1025 376.066 64.6752C376.493 64.2479 377.073 64.0078 377.677 64.0078C378.281 64.0078 378.861 64.2479 379.288 64.6752C379.715 65.1025 379.955 65.682 379.955 66.2863Z" fill="black"/>
<path fill-rule="evenodd" clip-rule="evenodd" d="M377.444 73.1175C374.406 72.9956 371.98 70.4938 371.98 67.4258C371.98 64.2797 374.531 61.7295 377.677 61.7295C380.823 61.7295 383.373 64.2797 383.373 67.4258C383.373 70.5718 380.823 73.1221 377.677 73.1221C377.651 73.1222 377.625 73.1222 377.599 73.1221C377.547 73.1221 377.496 73.1204 377.444 73.1175ZM374.021 71.0201C373.979 70.8978 373.964 70.7675 373.979 70.6388C373.994 70.5102 374.037 70.3864 374.106 70.2769C374.175 70.1673 374.268 70.0746 374.378 70.0059C374.488 69.9371 374.611 69.8939 374.74 69.8795C376.96 69.6337 378.407 69.6559 380.616 69.8846C380.745 69.898 380.869 69.9407 380.979 70.0093C381.089 70.0779 381.182 70.1708 381.251 70.2807C381.319 70.3906 381.362 70.5147 381.375 70.6436C381.389 70.7725 381.372 70.9027 381.328 71.0244C382.275 70.0663 382.805 68.7729 382.803 67.4258C382.803 64.5944 380.508 62.2991 377.677 62.2991C374.845 62.2991 372.55 64.5944 372.55 67.4258C372.55 68.8259 373.111 70.0951 374.021 71.0201Z" fill="black"/>
<path d="M380.153 79.3882C379.111 79.3882 378.199 79.8362 377.631 80.5934C377.062 79.8362 376.15 79.3882 375.108 79.3882C374.279 79.3891 373.484 79.7189 372.898 80.3053C372.311 80.8917 371.981 81.6867 371.98 82.5159C371.98 86.0473 377.216 88.9057 377.439 89.0237C377.498 89.0553 377.564 89.0719 377.631 89.0719C377.697 89.0719 377.763 89.0553 377.822 89.0237C378.045 88.9057 383.281 86.0473 383.281 82.5159C383.28 81.6867 382.95 80.8917 382.364 80.3053C381.777 79.7189 380.982 79.3891 380.153 79.3882ZM377.631 88.2065C376.709 87.6697 372.788 85.2245 372.788 82.5159C372.788 81.9007 373.033 81.3109 373.468 80.8759C373.903 80.4409 374.493 80.1961 375.108 80.1953C376.089 80.1953 376.913 80.718 377.257 81.5574C377.288 81.6315 377.339 81.6948 377.406 81.7393C377.472 81.7839 377.551 81.8077 377.631 81.8077C377.711 81.8077 377.789 81.7839 377.855 81.7393C377.922 81.6948 377.974 81.6315 378.004 81.5574C378.348 80.7165 379.172 80.1953 380.153 80.1953C380.768 80.1961 381.358 80.4409 381.793 80.8759C382.228 81.3109 382.473 81.9007 382.474 82.5159C382.474 85.2205 378.551 87.6692 377.631 88.2065Z" fill="black"/>
<path d="M377.677 96.0499C374.924 96.0499 372.693 98.2814 372.693 101.034C372.693 101.942 372.935 102.792 373.358 103.525C373.407 103.608 373.419 103.708 373.393 103.801L372.79 105.92L374.909 105.318C374.955 105.304 375.003 105.301 375.05 105.307C375.098 105.312 375.143 105.328 375.185 105.352C375.942 105.79 376.802 106.02 377.677 106.018C380.43 106.018 382.661 103.787 382.661 101.034C382.661 98.2814 380.43 96.0499 377.677 96.0499ZM371.98 101.034C371.98 97.8881 374.531 95.3379 377.677 95.3379C380.823 95.3379 383.373 97.8881 383.373 101.034C383.373 104.18 380.823 106.73 377.677 106.73C376.728 106.732 375.795 106.495 374.961 106.043L372.616 106.71C372.24 106.817 371.893 106.47 372 106.094L372.667 103.748C372.215 102.915 371.979 101.982 371.98 101.034ZM375.398 99.9661C375.398 99.7696 375.558 99.6101 375.754 99.6101H379.599C379.646 99.6101 379.692 99.6193 379.736 99.6372C379.779 99.6551 379.818 99.6813 379.851 99.7144C379.884 99.7474 379.91 99.7867 379.928 99.8299C379.946 99.8731 379.955 99.9194 379.955 99.9661C379.955 100.013 379.946 100.059 379.928 100.102C379.91 100.146 379.884 100.185 379.851 100.218C379.818 100.251 379.779 100.277 379.736 100.295C379.692 100.313 379.646 100.322 379.599 100.322H375.754C375.558 100.322 375.398 100.163 375.398 99.9661ZM375.754 101.746C375.66 101.746 375.569 101.784 375.503 101.85C375.436 101.917 375.398 102.008 375.398 102.102C375.398 102.197 375.436 102.287 375.503 102.354C375.569 102.421 375.66 102.458 375.754 102.458H378.46C378.554 102.458 378.645 102.421 378.712 102.354C378.779 102.287 378.816 102.197 378.816 102.102C378.816 102.008 378.779 101.917 378.712 101.85C378.645 101.784 378.554 101.746 378.46 101.746H375.754Z" fill="black"/>
<path d="M373.106 117.743V123.439C373.106 123.514 373.191 123.575 373.294 123.575H382.678C382.728 123.575 382.775 123.56 382.81 123.535C382.846 123.51 382.865 123.475 382.865 123.439V117.743C382.865 117.707 382.846 117.672 382.81 117.647C382.775 117.621 382.728 117.607 382.678 117.607H380.801C380.652 117.607 380.508 117.564 380.403 117.488C380.297 117.412 380.238 117.308 380.238 117.2C380.238 117.092 380.297 116.989 380.403 116.913C380.508 116.836 380.652 116.793 380.801 116.793H382.678C383.403 116.793 383.991 117.219 383.991 117.743V123.439C383.991 123.691 383.853 123.932 383.607 124.11C383.36 124.289 383.026 124.389 382.678 124.389H373.294C372.946 124.389 372.612 124.289 372.365 124.11C372.119 123.932 371.98 123.691 371.98 123.439V117.743C371.98 117.219 372.569 116.793 373.294 116.793H375.171C375.32 116.793 375.463 116.836 375.569 116.913C375.675 116.989 375.734 117.092 375.734 117.2C375.734 117.308 375.675 117.412 375.569 117.488C375.463 117.564 375.32 117.607 375.171 117.607H373.294C373.244 117.607 373.197 117.621 373.161 117.647C373.126 117.672 373.106 117.707 373.106 117.743ZM378.384 113.115L380.824 114.878C380.898 114.928 380.952 114.991 380.98 115.061C381.009 115.131 381.011 115.206 380.986 115.277C380.961 115.347 380.91 115.412 380.838 115.464C380.766 115.515 380.677 115.552 380.579 115.57C380.481 115.588 380.378 115.587 380.281 115.566C380.184 115.546 380.097 115.507 380.028 115.453L378.549 114.385V120.184C378.549 120.292 378.49 120.395 378.384 120.472C378.278 120.548 378.135 120.591 377.986 120.591C377.837 120.591 377.693 120.548 377.588 120.472C377.482 120.395 377.423 120.292 377.423 120.184V114.385L375.944 115.453C375.837 115.525 375.696 115.564 375.55 115.562C375.404 115.561 375.265 115.518 375.162 115.444C375.059 115.369 375 115.268 374.997 115.163C374.995 115.057 375.049 114.955 375.148 114.878L377.588 113.115C377.694 113.039 377.837 112.996 377.986 112.996C378.135 112.996 378.278 113.039 378.384 113.115Z" fill="black"/>
<path d="M256.409 231.258C256.166 231.258 255.94 231.223 255.732 231.155C255.526 231.083 255.348 230.982 255.196 230.853C255.044 230.724 254.928 230.574 254.849 230.403C254.818 230.342 254.816 230.287 254.843 230.238C254.873 230.185 254.923 230.149 254.991 230.13C255.044 230.115 255.095 230.12 255.145 230.147C255.198 230.173 255.238 230.213 255.264 230.266C255.321 230.377 255.405 230.475 255.515 230.563C255.625 230.65 255.756 230.718 255.908 230.768C256.06 230.813 256.227 230.836 256.409 230.836C256.611 230.836 256.789 230.804 256.945 230.739C257.101 230.671 257.222 230.574 257.309 230.449C257.401 230.32 257.446 230.164 257.446 229.982C257.446 229.75 257.361 229.551 257.19 229.384C257.019 229.216 256.751 229.11 256.387 229.065C255.942 229.011 255.595 228.875 255.344 228.654C255.094 228.43 254.968 228.157 254.968 227.834C254.968 227.603 255.029 227.401 255.151 227.23C255.276 227.059 255.447 226.928 255.663 226.837C255.88 226.742 256.128 226.695 256.409 226.695C256.618 226.695 256.808 226.729 256.979 226.797C257.15 226.862 257.298 226.949 257.423 227.059C257.552 227.166 257.657 227.284 257.737 227.413C257.775 227.473 257.786 227.532 257.771 227.589C257.759 227.646 257.727 227.69 257.674 227.72C257.617 227.747 257.558 227.751 257.497 227.732C257.44 227.713 257.397 227.677 257.366 227.623C257.309 227.536 257.237 227.454 257.15 227.378C257.066 227.299 256.964 227.236 256.842 227.19C256.721 227.145 256.575 227.12 256.404 227.116C256.104 227.116 255.863 227.181 255.68 227.31C255.498 227.435 255.407 227.62 255.407 227.863C255.407 227.992 255.441 228.111 255.509 228.222C255.578 228.328 255.69 228.421 255.845 228.501C256.005 228.577 256.218 228.634 256.483 228.672C256.958 228.74 257.309 228.886 257.537 229.11C257.769 229.33 257.885 229.619 257.885 229.976C257.885 230.181 257.847 230.363 257.771 230.523C257.699 230.682 257.594 230.817 257.458 230.927C257.325 231.034 257.167 231.115 256.985 231.172C256.806 231.229 256.614 231.258 256.409 231.258ZM260.17 231.229C259.862 231.229 259.589 231.163 259.349 231.03C259.114 230.893 258.928 230.705 258.791 230.466C258.658 230.227 258.592 229.953 258.592 229.646C258.592 229.334 258.654 229.061 258.78 228.825C258.909 228.586 259.085 228.398 259.309 228.261C259.533 228.125 259.792 228.056 260.084 228.056C260.373 228.056 260.623 228.123 260.836 228.256C261.052 228.385 261.22 228.565 261.337 228.797C261.455 229.028 261.514 229.292 261.514 229.589C261.514 229.649 261.495 229.699 261.457 229.737C261.419 229.771 261.37 229.788 261.309 229.788H258.888V229.423H261.354L261.109 229.6C261.113 229.38 261.073 229.182 260.99 229.008C260.906 228.833 260.787 228.696 260.631 228.597C260.479 228.499 260.297 228.449 260.084 228.449C259.868 228.449 259.678 228.501 259.514 228.603C259.351 228.706 259.224 228.848 259.133 229.03C259.046 229.209 259.002 229.414 259.002 229.646C259.002 229.877 259.051 230.082 259.15 230.261C259.252 230.439 259.391 230.58 259.566 230.682C259.74 230.785 259.942 230.836 260.17 230.836C260.306 230.836 260.443 230.813 260.58 230.768C260.72 230.718 260.832 230.658 260.916 230.585C260.958 230.551 261.005 230.534 261.058 230.534C261.111 230.53 261.157 230.544 261.195 230.574C261.244 230.62 261.269 230.669 261.269 230.722C261.273 230.775 261.252 230.821 261.206 230.859C261.081 230.965 260.921 231.054 260.728 231.127C260.534 231.195 260.348 231.229 260.17 231.229ZM263.557 231.229C263.25 231.229 262.976 231.163 262.737 231.03C262.502 230.893 262.316 230.705 262.179 230.466C262.046 230.227 261.979 229.953 261.979 229.646C261.979 229.334 262.042 229.061 262.167 228.825C262.297 228.586 262.473 228.398 262.697 228.261C262.921 228.125 263.179 228.056 263.472 228.056C263.76 228.056 264.011 228.123 264.224 228.256C264.44 228.385 264.607 228.565 264.725 228.797C264.843 229.028 264.902 229.292 264.902 229.589C264.902 229.649 264.883 229.699 264.845 229.737C264.807 229.771 264.757 229.788 264.697 229.788H262.276V229.423H264.742L264.497 229.6C264.501 229.38 264.461 229.182 264.378 229.008C264.294 228.833 264.174 228.696 264.019 228.597C263.867 228.499 263.685 228.449 263.472 228.449C263.255 228.449 263.066 228.501 262.902 228.603C262.739 228.706 262.612 228.848 262.521 229.03C262.433 229.209 262.39 229.414 262.39 229.646C262.39 229.877 262.439 230.082 262.538 230.261C262.64 230.439 262.779 230.58 262.954 230.682C263.128 230.785 263.329 230.836 263.557 230.836C263.694 230.836 263.831 230.813 263.967 230.768C264.108 230.718 264.22 230.658 264.304 230.585C264.345 230.551 264.393 230.534 264.446 230.534C264.499 230.53 264.545 230.544 264.583 230.574C264.632 230.62 264.657 230.669 264.657 230.722C264.66 230.775 264.64 230.821 264.594 230.859C264.469 230.965 264.309 231.054 264.116 231.127C263.922 231.195 263.736 231.229 263.557 231.229ZM267.592 231.201C267.531 231.201 267.478 231.18 267.432 231.138C267.39 231.092 267.369 231.039 267.369 230.979V226.974C267.369 226.909 267.39 226.856 267.432 226.815C267.478 226.773 267.531 226.752 267.592 226.752C267.683 226.752 267.749 226.79 267.791 226.866L269.711 230.682H269.517L271.402 226.866C271.448 226.79 271.514 226.752 271.602 226.752C271.663 226.752 271.714 226.773 271.756 226.815C271.797 226.856 271.818 226.909 271.818 226.974V230.979C271.818 231.039 271.797 231.092 271.756 231.138C271.714 231.18 271.663 231.201 271.602 231.201C271.537 231.201 271.482 231.18 271.437 231.138C271.395 231.092 271.374 231.039 271.374 230.979V227.549L271.471 227.555L269.79 230.99C269.749 231.062 269.684 231.098 269.597 231.098C269.502 231.098 269.433 231.053 269.392 230.961L267.7 227.578L267.814 227.549V230.979C267.814 231.039 267.791 231.092 267.745 231.138C267.704 231.18 267.652 231.201 267.592 231.201ZM274.321 231.229C274.018 231.229 273.746 231.161 273.507 231.024C273.268 230.887 273.08 230.699 272.943 230.46C272.806 230.221 272.738 229.949 272.738 229.646C272.738 229.338 272.806 229.065 272.943 228.825C273.08 228.586 273.268 228.398 273.507 228.261C273.746 228.125 274.018 228.056 274.321 228.056C274.625 228.056 274.895 228.125 275.13 228.261C275.37 228.398 275.558 228.586 275.694 228.825C275.831 229.065 275.901 229.338 275.905 229.646C275.905 229.949 275.835 230.221 275.694 230.46C275.558 230.699 275.37 230.887 275.13 231.024C274.895 231.161 274.625 231.229 274.321 231.229ZM274.321 230.83C274.542 230.83 274.739 230.779 274.914 230.677C275.089 230.574 275.225 230.434 275.324 230.255C275.423 230.077 275.472 229.873 275.472 229.646C275.472 229.418 275.423 229.215 275.324 229.036C275.225 228.854 275.089 228.711 274.914 228.609C274.739 228.506 274.542 228.455 274.321 228.455C274.101 228.455 273.904 228.506 273.729 228.609C273.554 228.711 273.416 228.854 273.313 229.036C273.214 229.215 273.165 229.418 273.165 229.646C273.165 229.873 273.214 230.077 273.313 230.255C273.416 230.434 273.554 230.574 273.729 230.677C273.904 230.779 274.101 230.83 274.321 230.83ZM276.94 229.281C276.952 229.046 277.012 228.835 277.123 228.649C277.237 228.463 277.383 228.316 277.561 228.21C277.744 228.104 277.945 228.051 278.165 228.051C278.34 228.051 278.475 228.075 278.569 228.125C278.664 228.174 278.7 228.246 278.678 228.341C278.663 228.398 278.636 228.436 278.598 228.455C278.564 228.474 278.52 228.482 278.467 228.478C278.418 228.474 278.361 228.47 278.296 228.466C278.083 228.447 277.894 228.47 277.726 228.535C277.563 228.596 277.432 228.691 277.333 228.82C277.238 228.949 277.191 229.103 277.191 229.281H276.94ZM276.975 231.201C276.906 231.201 276.853 231.182 276.815 231.144C276.777 231.106 276.758 231.053 276.758 230.984V228.301C276.758 228.233 276.777 228.18 276.815 228.142C276.853 228.104 276.906 228.085 276.975 228.085C277.043 228.085 277.096 228.104 277.134 228.142C277.172 228.18 277.191 228.233 277.191 228.301V230.984C277.191 231.053 277.172 231.106 277.134 231.144C277.096 231.182 277.043 231.201 276.975 231.201ZM280.552 231.229C280.244 231.229 279.971 231.163 279.731 231.03C279.496 230.893 279.31 230.705 279.173 230.466C279.04 230.227 278.974 229.953 278.974 229.646C278.974 229.334 279.036 229.061 279.162 228.825C279.291 228.586 279.467 228.398 279.691 228.261C279.916 228.125 280.174 228.056 280.466 228.056C280.755 228.056 281.005 228.123 281.218 228.256C281.435 228.385 281.602 228.565 281.719 228.797C281.837 229.028 281.896 229.292 281.896 229.589C281.896 229.649 281.877 229.699 281.839 229.737C281.801 229.771 281.752 229.788 281.691 229.788H279.27V229.423H281.736L281.492 229.6C281.495 229.38 281.455 229.182 281.372 229.008C281.288 228.833 281.169 228.696 281.013 228.597C280.861 228.499 280.679 228.449 280.466 228.449C280.25 228.449 280.06 228.501 279.897 228.603C279.733 228.706 279.606 228.848 279.515 229.03C279.428 229.209 279.384 229.414 279.384 229.646C279.384 229.877 279.433 230.082 279.532 230.261C279.635 230.439 279.773 230.58 279.948 230.682C280.122 230.785 280.324 230.836 280.552 230.836C280.688 230.836 280.825 230.813 280.962 230.768C281.102 230.718 281.214 230.658 281.298 230.585C281.34 230.551 281.387 230.534 281.44 230.534C281.493 230.53 281.539 230.544 281.577 230.574C281.626 230.62 281.651 230.669 281.651 230.722C281.655 230.775 281.634 230.821 281.588 230.859C281.463 230.965 281.304 231.054 281.11 231.127C280.916 231.195 280.73 231.229 280.552 231.229ZM284.119 231.201C284.031 231.201 283.969 231.165 283.931 231.092C283.893 231.02 283.889 230.95 283.919 230.882L285.594 226.906C285.636 226.803 285.708 226.752 285.811 226.752C285.909 226.752 285.98 226.803 286.021 226.906L287.702 230.887C287.736 230.96 287.73 231.03 287.685 231.098C287.643 231.167 287.582 231.201 287.502 231.201C287.457 231.201 287.415 231.189 287.377 231.167C287.343 231.144 287.314 231.11 287.292 231.064L285.725 227.265H285.902L284.324 231.064C284.305 231.11 284.276 231.144 284.238 231.167C284.204 231.189 284.164 231.201 284.119 231.201ZM284.495 230.141L284.666 229.76H286.978L287.149 230.141H284.495ZM289.531 231.201C289.33 231.201 289.149 231.153 288.99 231.058C288.834 230.963 288.711 230.834 288.62 230.671C288.528 230.504 288.483 230.314 288.483 230.101V227.316C288.483 227.251 288.502 227.198 288.54 227.156C288.582 227.115 288.635 227.094 288.699 227.094C288.764 227.094 288.817 227.115 288.859 227.156C288.901 227.198 288.921 227.251 288.921 227.316V230.101C288.921 230.295 288.978 230.454 289.092 230.58C289.206 230.701 289.352 230.762 289.531 230.762H289.685C289.746 230.762 289.795 230.783 289.833 230.825C289.871 230.867 289.89 230.92 289.89 230.984C289.89 231.049 289.867 231.102 289.821 231.144C289.776 231.182 289.719 231.201 289.651 231.201H289.531ZM288.113 228.58C288.056 228.58 288.008 228.563 287.97 228.529C287.932 228.491 287.913 228.446 287.913 228.392C287.913 228.335 287.932 228.29 287.97 228.256C288.008 228.218 288.056 228.199 288.113 228.199H289.565C289.622 228.199 289.67 228.218 289.708 228.256C289.746 228.29 289.765 228.335 289.765 228.392C289.765 228.446 289.746 228.491 289.708 228.529C289.67 228.563 289.622 228.58 289.565 228.58H288.113ZM291.823 231.201C291.622 231.201 291.441 231.153 291.282 231.058C291.126 230.963 291.003 230.834 290.911 230.671C290.82 230.504 290.775 230.314 290.775 230.101V227.316C290.775 227.251 290.794 227.198 290.832 227.156C290.873 227.115 290.927 227.094 290.991 227.094C291.056 227.094 291.109 227.115 291.151 227.156C291.192 227.198 291.213 227.251 291.213 227.316V230.101C291.213 230.295 291.27 230.454 291.384 230.58C291.498 230.701 291.644 230.762 291.823 230.762H291.977C292.037 230.762 292.087 230.783 292.125 230.825C292.163 230.867 292.182 230.92 292.182 230.984C292.182 231.049 292.159 231.102 292.113 231.144C292.068 231.182 292.011 231.201 291.942 231.201H291.823ZM290.404 228.58C290.348 228.58 290.3 228.563 290.262 228.529C290.224 228.491 290.205 228.446 290.205 228.392C290.205 228.335 290.224 228.29 290.262 228.256C290.3 228.218 290.348 228.199 290.404 228.199H291.857C291.914 228.199 291.961 228.218 291.999 228.256C292.037 228.29 292.056 228.335 292.056 228.392C292.056 228.446 292.037 228.491 291.999 228.529C291.961 228.563 291.914 228.58 291.857 228.58H290.404ZM293.078 229.281C293.089 229.046 293.15 228.835 293.26 228.649C293.374 228.463 293.52 228.316 293.699 228.21C293.881 228.104 294.082 228.051 294.303 228.051C294.477 228.051 294.612 228.075 294.707 228.125C294.802 228.174 294.838 228.246 294.815 228.341C294.8 228.398 294.774 228.436 294.736 228.455C294.701 228.474 294.658 228.482 294.605 228.478C294.555 228.474 294.498 228.47 294.434 228.466C294.221 228.447 294.031 228.47 293.864 228.535C293.701 228.596 293.57 228.691 293.471 228.82C293.376 228.949 293.329 229.103 293.329 229.281H293.078ZM293.112 231.201C293.044 231.201 292.991 231.182 292.953 231.144C292.915 231.106 292.896 231.053 292.896 230.984V228.301C292.896 228.233 292.915 228.18 292.953 228.142C292.991 228.104 293.044 228.085 293.112 228.085C293.181 228.085 293.234 228.104 293.272 228.142C293.31 228.18 293.329 228.233 293.329 228.301V230.984C293.329 231.053 293.31 231.106 293.272 231.144C293.234 231.182 293.181 231.201 293.112 231.201ZM295.818 231.201C295.75 231.201 295.695 231.182 295.653 231.144C295.615 231.102 295.596 231.047 295.596 230.979V228.307C295.596 228.239 295.615 228.185 295.653 228.147C295.695 228.106 295.75 228.085 295.818 228.085C295.883 228.085 295.934 228.106 295.972 228.147C296.014 228.185 296.034 228.239 296.034 228.307V230.979C296.034 231.047 296.014 231.102 295.972 231.144C295.934 231.182 295.883 231.201 295.818 231.201ZM295.812 227.492C295.729 227.492 295.657 227.462 295.596 227.401C295.535 227.34 295.505 227.266 295.505 227.179C295.505 227.084 295.535 227.01 295.596 226.957C295.66 226.9 295.734 226.872 295.818 226.872C295.898 226.872 295.968 226.9 296.029 226.957C296.093 227.01 296.126 227.084 296.126 227.179C296.126 227.266 296.095 227.34 296.034 227.401C295.974 227.462 295.9 227.492 295.812 227.492ZM298.729 231.229C298.433 231.229 298.165 231.161 297.926 231.024C297.69 230.887 297.503 230.701 297.362 230.466C297.225 230.227 297.155 229.959 297.151 229.663V226.974C297.151 226.906 297.17 226.853 297.208 226.815C297.25 226.773 297.305 226.752 297.373 226.752C297.438 226.752 297.489 226.773 297.527 226.815C297.569 226.853 297.59 226.906 297.59 226.974V228.649C297.715 228.47 297.88 228.328 298.085 228.222C298.294 228.111 298.526 228.056 298.78 228.056C299.073 228.056 299.335 228.127 299.566 228.267C299.798 228.404 299.98 228.592 300.113 228.831C300.25 229.07 300.318 229.34 300.318 229.64C300.318 229.944 300.248 230.215 300.108 230.454C299.971 230.694 299.783 230.884 299.544 231.024C299.304 231.161 299.033 231.229 298.729 231.229ZM298.729 230.83C298.949 230.83 299.147 230.779 299.322 230.677C299.496 230.57 299.633 230.428 299.732 230.249C299.834 230.071 299.885 229.868 299.885 229.64C299.885 229.416 299.834 229.215 299.732 229.036C299.633 228.854 299.496 228.711 299.322 228.609C299.147 228.506 298.949 228.455 298.729 228.455C298.513 228.455 298.317 228.506 298.142 228.609C297.968 228.711 297.831 228.854 297.732 229.036C297.634 229.215 297.584 229.416 297.584 229.64C297.584 229.868 297.634 230.071 297.732 230.249C297.831 230.428 297.968 230.57 298.142 230.677C298.317 230.779 298.513 230.83 298.729 230.83ZM302.534 231.235C302.265 231.235 302.024 231.18 301.811 231.07C301.598 230.956 301.429 230.791 301.304 230.574C301.182 230.358 301.122 230.094 301.122 229.782V228.301C301.122 228.241 301.143 228.189 301.184 228.147C301.226 228.106 301.277 228.085 301.338 228.085C301.403 228.085 301.456 228.106 301.498 228.147C301.539 228.189 301.56 228.241 301.56 228.301V229.782C301.56 230.018 301.604 230.211 301.691 230.363C301.782 230.515 301.904 230.629 302.056 230.705C302.212 230.781 302.386 230.819 302.58 230.819C302.766 230.819 302.933 230.783 303.081 230.711C303.233 230.639 303.353 230.54 303.44 230.415C303.527 230.289 303.571 230.147 303.571 229.987H303.884C303.873 230.227 303.807 230.441 303.685 230.631C303.567 230.817 303.408 230.965 303.207 231.075C303.005 231.182 302.781 231.235 302.534 231.235ZM303.788 231.201C303.723 231.201 303.67 231.182 303.628 231.144C303.59 231.102 303.571 231.047 303.571 230.979V228.301C303.571 228.237 303.59 228.185 303.628 228.147C303.67 228.106 303.723 228.085 303.788 228.085C303.852 228.085 303.905 228.106 303.947 228.147C303.989 228.185 304.01 228.237 304.01 228.301V230.979C304.01 231.047 303.989 231.102 303.947 231.144C303.905 231.182 303.852 231.201 303.788 231.201ZM306.253 231.201C306.051 231.201 305.871 231.153 305.712 231.058C305.556 230.963 305.432 230.834 305.341 230.671C305.25 230.504 305.205 230.314 305.205 230.101V227.316C305.205 227.251 305.224 227.198 305.262 227.156C305.303 227.115 305.356 227.094 305.421 227.094C305.486 227.094 305.539 227.115 305.581 227.156C305.622 227.198 305.643 227.251 305.643 227.316V230.101C305.643 230.295 305.7 230.454 305.814 230.58C305.928 230.701 306.074 230.762 306.253 230.762H306.407C306.467 230.762 306.517 230.783 306.555 230.825C306.593 230.867 306.612 230.92 306.612 230.984C306.612 231.049 306.589 231.102 306.543 231.144C306.498 231.182 306.441 231.201 306.372 231.201H306.253ZM304.834 228.58C304.777 228.58 304.73 228.563 304.692 228.529C304.654 228.491 304.635 228.446 304.635 228.392C304.635 228.335 304.654 228.29 304.692 228.256C304.73 228.218 304.777 228.199 304.834 228.199H306.287C306.344 228.199 306.391 228.218 306.429 228.256C306.467 228.29 306.486 228.335 306.486 228.392C306.486 228.446 306.467 228.491 306.429 228.529C306.391 228.563 306.344 228.58 306.287 228.58H304.834ZM308.738 231.229C308.431 231.229 308.157 231.163 307.918 231.03C307.683 230.893 307.496 230.705 307.36 230.466C307.227 230.227 307.16 229.953 307.16 229.646C307.16 229.334 307.223 229.061 307.348 228.825C307.477 228.586 307.654 228.398 307.878 228.261C308.102 228.125 308.36 228.056 308.653 228.056C308.941 228.056 309.192 228.123 309.405 228.256C309.621 228.385 309.788 228.565 309.906 228.797C310.024 229.028 310.083 229.292 310.083 229.589C310.083 229.649 310.064 229.699 310.026 229.737C309.988 229.771 309.938 229.788 309.878 229.788H307.457V229.423H309.923L309.678 229.6C309.682 229.38 309.642 229.182 309.559 229.008C309.475 228.833 309.355 228.696 309.2 228.597C309.048 228.499 308.865 228.449 308.653 228.449C308.436 228.449 308.246 228.501 308.083 228.603C307.92 228.706 307.793 228.848 307.702 229.03C307.614 229.209 307.571 229.414 307.571 229.646C307.571 229.877 307.62 230.082 307.719 230.261C307.821 230.439 307.96 230.58 308.134 230.682C308.309 230.785 308.51 230.836 308.738 230.836C308.875 230.836 309.012 230.813 309.148 230.768C309.289 230.718 309.401 230.658 309.484 230.585C309.526 230.551 309.574 230.534 309.627 230.534C309.68 230.53 309.726 230.544 309.764 230.574C309.813 230.62 309.838 230.669 309.838 230.722C309.841 230.775 309.821 230.821 309.775 230.859C309.65 230.965 309.49 231.054 309.296 231.127C309.103 231.195 308.917 231.229 308.738 231.229ZM311.913 231.229C311.688 231.229 311.466 231.191 311.246 231.115C311.026 231.039 310.847 230.925 310.711 230.773C310.669 230.728 310.652 230.677 310.659 230.62C310.667 230.563 310.695 230.513 310.745 230.472C310.798 230.434 310.853 230.418 310.91 230.426C310.967 230.434 311.014 230.458 311.052 230.5C311.144 230.606 311.263 230.688 311.411 230.745C311.563 230.802 311.73 230.83 311.913 230.83C312.194 230.83 312.397 230.783 312.522 230.688C312.647 230.589 312.712 230.472 312.716 230.335C312.716 230.198 312.651 230.086 312.522 229.999C312.393 229.908 312.18 229.837 311.884 229.788C311.501 229.727 311.22 229.621 311.041 229.469C310.863 229.317 310.773 229.137 310.773 228.928C310.773 228.734 310.825 228.573 310.927 228.444C311.03 228.315 311.166 228.218 311.337 228.153C311.508 228.089 311.696 228.056 311.901 228.056C312.156 228.056 312.374 228.1 312.556 228.187C312.742 228.275 312.892 228.392 313.006 228.541C313.044 228.59 313.059 228.641 313.052 228.694C313.044 228.747 313.014 228.791 312.961 228.825C312.915 228.852 312.862 228.861 312.801 228.854C312.744 228.842 312.695 228.814 312.653 228.768C312.558 228.658 312.448 228.578 312.323 228.529C312.197 228.476 312.053 228.449 311.89 228.449C311.681 228.449 311.514 228.493 311.388 228.58C311.263 228.664 311.201 228.77 311.201 228.899C311.201 228.987 311.223 229.063 311.269 229.127C311.318 229.192 311.4 229.249 311.514 229.298C311.632 229.347 311.795 229.389 312.004 229.423C312.289 229.469 312.513 229.537 312.676 229.629C312.843 229.716 312.961 229.82 313.029 229.942C313.101 230.06 313.137 230.189 313.137 230.329C313.137 230.508 313.084 230.665 312.978 230.802C312.875 230.935 312.731 231.039 312.545 231.115C312.363 231.191 312.152 231.229 311.913 231.229Z" fill="black"/>
<rect x="242.533" y="223.647" width="82.8811" height="11.1078" rx="5.55389" stroke="black" stroke-width="0.284815"/>
<path d="M230.023 131.194C229.78 131.194 229.554 131.16 229.345 131.092C229.14 131.019 228.961 130.919 228.809 130.79C228.657 130.661 228.542 130.511 228.462 130.34C228.431 130.279 228.43 130.224 228.456 130.175C228.487 130.121 228.536 130.085 228.604 130.066C228.657 130.051 228.709 130.057 228.758 130.083C228.811 130.11 228.851 130.15 228.878 130.203C228.935 130.313 229.018 130.412 229.128 130.499C229.238 130.587 229.369 130.655 229.521 130.704C229.673 130.75 229.84 130.773 230.023 130.773C230.224 130.773 230.402 130.74 230.558 130.676C230.714 130.607 230.835 130.511 230.923 130.385C231.014 130.256 231.059 130.1 231.059 129.918C231.059 129.687 230.974 129.487 230.803 129.32C230.632 129.153 230.364 129.047 230 129.001C229.556 128.948 229.208 128.811 228.957 128.591C228.707 128.367 228.581 128.093 228.581 127.771C228.581 127.539 228.642 127.338 228.764 127.167C228.889 126.996 229.06 126.865 229.276 126.774C229.493 126.679 229.742 126.631 230.023 126.631C230.231 126.631 230.421 126.666 230.592 126.734C230.763 126.799 230.911 126.886 231.037 126.996C231.166 127.102 231.27 127.22 231.35 127.349C231.388 127.41 231.399 127.469 231.384 127.526C231.373 127.583 231.34 127.626 231.287 127.657C231.23 127.683 231.171 127.687 231.111 127.668C231.054 127.649 231.01 127.613 230.98 127.56C230.923 127.473 230.85 127.391 230.763 127.315C230.68 127.235 230.577 127.173 230.456 127.127C230.334 127.081 230.188 127.057 230.017 127.053C229.717 127.053 229.476 127.118 229.293 127.247C229.111 127.372 229.02 127.556 229.02 127.799C229.02 127.928 229.054 128.048 229.123 128.158C229.191 128.264 229.303 128.357 229.459 128.437C229.618 128.513 229.831 128.57 230.097 128.608C230.571 128.676 230.923 128.823 231.15 129.047C231.382 129.267 231.498 129.556 231.498 129.913C231.498 130.118 231.46 130.3 231.384 130.459C231.312 130.619 231.207 130.754 231.071 130.864C230.938 130.97 230.78 131.052 230.598 131.109C230.419 131.166 230.228 131.194 230.023 131.194ZM233.589 131.137C233.388 131.137 233.207 131.09 233.048 130.995C232.892 130.9 232.769 130.771 232.678 130.607C232.587 130.44 232.541 130.25 232.541 130.038V127.252C232.541 127.188 232.56 127.135 232.598 127.093C232.64 127.051 232.693 127.03 232.757 127.03C232.822 127.03 232.875 127.051 232.917 127.093C232.959 127.135 232.98 127.188 232.98 127.252V130.038C232.98 130.231 233.037 130.391 233.15 130.516C233.264 130.638 233.411 130.699 233.589 130.699H233.743C233.804 130.699 233.853 130.719 233.891 130.761C233.929 130.803 233.948 130.856 233.948 130.921C233.948 130.985 233.925 131.038 233.88 131.08C233.834 131.118 233.777 131.137 233.709 131.137H233.589ZM232.171 128.517C232.114 128.517 232.066 128.5 232.028 128.466C231.99 128.428 231.971 128.382 231.971 128.329C231.971 128.272 231.99 128.226 232.028 128.192C232.066 128.154 232.114 128.135 232.171 128.135H233.623C233.68 128.135 233.728 128.154 233.766 128.192C233.804 128.226 233.823 128.272 233.823 128.329C233.823 128.382 233.804 128.428 233.766 128.466C233.728 128.5 233.68 128.517 233.623 128.517H232.171ZM235.197 132.493C235.167 132.493 235.133 132.485 235.095 132.47C234.966 132.413 234.93 132.322 234.987 132.197L236.827 128.141C236.884 128.019 236.975 127.985 237.1 128.038C237.229 128.092 237.265 128.181 237.208 128.306L235.363 132.362C235.325 132.449 235.27 132.493 235.197 132.493ZM235.83 131.04C235.773 131.067 235.72 131.073 235.67 131.057C235.621 131.038 235.581 131 235.551 130.944L234.28 128.312C234.254 128.255 234.25 128.202 234.269 128.152C234.288 128.103 234.326 128.065 234.383 128.038C234.44 128.012 234.493 128.008 234.542 128.027C234.592 128.042 234.63 128.078 234.656 128.135L235.904 130.767C235.934 130.824 235.944 130.877 235.932 130.926C235.921 130.976 235.887 131.014 235.83 131.04ZM238.455 131.137C238.303 131.137 238.166 131.095 238.045 131.012C237.927 130.928 237.834 130.813 237.766 130.664C237.701 130.516 237.669 130.345 237.669 130.152V126.905C237.669 126.84 237.688 126.789 237.726 126.751C237.767 126.709 237.821 126.688 237.885 126.688C237.95 126.688 238.001 126.709 238.039 126.751C238.081 126.789 238.102 126.84 238.102 126.905V130.152C238.102 130.315 238.134 130.448 238.199 130.55C238.267 130.653 238.352 130.704 238.455 130.704H238.597C238.654 130.704 238.7 130.725 238.734 130.767C238.768 130.805 238.785 130.856 238.785 130.921C238.785 130.985 238.761 131.038 238.711 131.08C238.666 131.118 238.605 131.137 238.529 131.137H238.455ZM240.631 131.166C240.323 131.166 240.05 131.099 239.81 130.966C239.575 130.83 239.389 130.642 239.252 130.402C239.119 130.163 239.053 129.89 239.053 129.582C239.053 129.271 239.115 128.997 239.241 128.762C239.37 128.523 239.546 128.335 239.77 128.198C239.994 128.061 240.253 127.993 240.545 127.993C240.834 127.993 241.084 128.059 241.297 128.192C241.513 128.321 241.681 128.502 241.798 128.733C241.916 128.965 241.975 129.229 241.975 129.525C241.975 129.586 241.956 129.635 241.918 129.673C241.88 129.707 241.831 129.725 241.77 129.725H239.349V129.36H241.815L241.57 129.537C241.574 129.316 241.534 129.119 241.451 128.944C241.367 128.769 241.248 128.633 241.092 128.534C240.94 128.435 240.758 128.386 240.545 128.386C240.329 128.386 240.139 128.437 239.975 128.54C239.812 128.642 239.685 128.785 239.594 128.967C239.506 129.145 239.463 129.35 239.463 129.582C239.463 129.814 239.512 130.019 239.611 130.197C239.713 130.376 239.852 130.516 240.027 130.619C240.201 130.721 240.403 130.773 240.631 130.773C240.767 130.773 240.904 130.75 241.041 130.704C241.181 130.655 241.293 130.594 241.377 130.522C241.419 130.488 241.466 130.471 241.519 130.471C241.572 130.467 241.618 130.48 241.656 130.511C241.705 130.556 241.73 130.606 241.73 130.659C241.734 130.712 241.713 130.757 241.667 130.795C241.542 130.902 241.382 130.991 241.189 131.063C240.995 131.132 240.809 131.166 240.631 131.166ZM245.736 131.137C245.675 131.137 245.622 131.116 245.576 131.075C245.534 131.029 245.514 130.976 245.514 130.915V126.688H245.958V130.915C245.958 130.976 245.937 131.029 245.895 131.075C245.853 131.116 245.8 131.137 245.736 131.137ZM244.164 127.093C244.103 127.093 244.053 127.074 244.015 127.036C243.977 126.998 243.958 126.95 243.958 126.893C243.958 126.833 243.977 126.783 244.015 126.745C244.053 126.707 244.103 126.688 244.164 126.688H247.314C247.374 126.688 247.424 126.707 247.462 126.745C247.5 126.783 247.519 126.833 247.519 126.893C247.519 126.95 247.5 126.998 247.462 127.036C247.424 127.074 247.374 127.093 247.314 127.093H244.164ZM248.376 131.137C248.308 131.137 248.253 131.118 248.211 131.08C248.173 131.038 248.154 130.983 248.154 130.915V128.243C248.154 128.175 248.173 128.122 248.211 128.084C248.253 128.042 248.308 128.021 248.376 128.021C248.441 128.021 248.492 128.042 248.53 128.084C248.572 128.122 248.592 128.175 248.592 128.243V130.915C248.592 130.983 248.572 131.038 248.53 131.08C248.492 131.118 248.441 131.137 248.376 131.137ZM248.37 127.429C248.287 127.429 248.215 127.399 248.154 127.338C248.093 127.277 248.063 127.203 248.063 127.116C248.063 127.021 248.093 126.947 248.154 126.893C248.218 126.837 248.292 126.808 248.376 126.808C248.456 126.808 248.526 126.837 248.587 126.893C248.651 126.947 248.684 127.021 248.684 127.116C248.684 127.203 248.653 127.277 248.592 127.338C248.532 127.399 248.458 127.429 248.37 127.429ZM250.381 131.137C250.23 131.137 250.093 131.095 249.971 131.012C249.854 130.928 249.761 130.813 249.692 130.664C249.628 130.516 249.595 130.345 249.595 130.152V126.905C249.595 126.84 249.614 126.789 249.652 126.751C249.694 126.709 249.747 126.688 249.812 126.688C249.876 126.688 249.928 126.709 249.966 126.751C250.007 126.789 250.028 126.84 250.028 126.905V130.152C250.028 130.315 250.061 130.448 250.125 130.55C250.193 130.653 250.279 130.704 250.381 130.704H250.524C250.581 130.704 250.626 130.725 250.661 130.767C250.695 130.805 250.712 130.856 250.712 130.921C250.712 130.985 250.687 131.038 250.638 131.08C250.592 131.118 250.531 131.137 250.456 131.137H250.381ZM252.557 131.166C252.25 131.166 251.976 131.099 251.737 130.966C251.501 130.83 251.315 130.642 251.179 130.402C251.046 130.163 250.979 129.89 250.979 129.582C250.979 129.271 251.042 128.997 251.167 128.762C251.296 128.523 251.473 128.335 251.697 128.198C251.921 128.061 252.179 127.993 252.472 127.993C252.76 127.993 253.011 128.059 253.224 128.192C253.44 128.321 253.607 128.502 253.725 128.733C253.843 128.965 253.901 129.229 253.901 129.525C253.901 129.586 253.883 129.635 253.845 129.673C253.807 129.707 253.757 129.725 253.696 129.725H251.276V129.36H253.742L253.497 129.537C253.501 129.316 253.461 129.119 253.377 128.944C253.294 128.769 253.174 128.633 253.019 128.534C252.867 128.435 252.684 128.386 252.472 128.386C252.255 128.386 252.065 128.437 251.902 128.54C251.739 128.642 251.612 128.785 251.52 128.967C251.433 129.145 251.389 129.35 251.389 129.582C251.389 129.814 251.439 130.019 251.538 130.197C251.64 130.376 251.779 130.516 251.953 130.619C252.128 130.721 252.329 130.773 252.557 130.773C252.694 130.773 252.831 130.75 252.967 130.704C253.108 130.655 253.22 130.594 253.303 130.522C253.345 130.488 253.393 130.471 253.446 130.471C253.499 130.467 253.545 130.48 253.583 130.511C253.632 130.556 253.657 130.606 253.657 130.659C253.66 130.712 253.639 130.757 253.594 130.795C253.469 130.902 253.309 130.991 253.115 131.063C252.922 131.132 252.736 131.166 252.557 131.166Z" fill="black"/>
<mask id="mask0_454_3424" style="mask-type:luminance" maskUnits="userSpaceOnUse" x="62" y="19" width="30" height="22">
<path d="M91.8853 19.3696H62.1016V40.7393H91.8853V19.3696Z" fill="white"/>
</mask>
<g mask="url(#mask0_454_3424)">
<path d="M90.3711 33.1953C89.6302 32.5624 88.682 32.1372 87.6522 31.9757C86.6222 31.8143 85.5592 31.9243 84.6042 32.2913C84.6335 31.6834 84.5152 31.0768 84.2567 30.5098C83.9984 29.9429 83.6053 29.4279 83.1026 28.9974H83.1001L85.5365 26.9138C86.0183 26.504 86.4009 26.0169 86.6623 25.4804C86.9237 24.9439 87.0588 24.3686 87.0597 23.7874C87.0607 23.2062 86.9277 22.6306 86.6683 22.0935C86.4087 21.5563 86.0279 21.0682 85.5474 20.6572C85.0671 20.2461 84.4966 19.9202 83.8686 19.698C83.2407 19.4758 82.5677 19.3617 81.8881 19.3623C81.2086 19.3629 80.5359 19.4782 79.9085 19.7015C79.2812 19.9248 78.7114 20.2517 78.232 20.6637C77.6643 21.1473 77.2384 21.739 76.989 22.3903C76.7375 21.761 76.323 21.1884 75.7766 20.7152C75.2301 20.2419 74.5658 19.8804 73.8332 19.6574C73.1006 19.4344 72.3186 19.3557 71.5454 19.4273C70.7723 19.4988 70.0281 19.7187 69.3682 20.0706C68.7083 20.4225 68.1498 20.8972 67.7344 21.4594C67.319 22.0217 67.0574 22.6568 66.969 23.3176C66.8806 23.9784 66.9679 24.6477 67.2241 25.2756C67.4804 25.9035 67.8991 26.4739 68.4491 26.9441L70.8857 29.0295L70.8838 29.0285C70.3896 29.451 70.0013 29.9552 69.7424 30.5101C69.4835 31.0652 69.3595 31.6595 69.3779 32.2568C68.5183 31.9278 67.57 31.8061 66.6353 31.9046C65.7007 32.0032 64.8153 32.3184 64.075 32.8161C63.3346 33.3139 62.7674 33.9752 62.4347 34.7287C62.102 35.4821 62.0164 36.2991 62.1873 37.0912C62.3581 37.8832 62.7788 38.6202 63.404 39.2227C64.0291 39.825 64.8349 40.2697 65.7341 40.5088C66.6334 40.7479 67.592 40.7722 68.5062 40.5791C69.4205 40.386 70.2556 39.9828 70.9214 39.4131L73.3224 37.3627C74.2915 38.1914 75.6058 38.6569 76.9761 38.6569C78.3464 38.6569 79.6607 38.1914 80.6298 37.3627L83.0628 39.4444C84.0322 40.2709 85.3455 40.7346 86.7144 40.7336C88.0832 40.7328 89.3957 40.2674 90.3637 39.4397C91.3318 38.612 91.8762 37.4896 91.8776 36.3189C91.8789 35.1481 91.3371 34.0249 90.3711 33.1955V33.1953ZM79.4483 21.7046C80.0945 21.1525 80.9706 20.8424 81.8839 20.8424C82.7973 20.8424 83.6734 21.1525 84.3196 21.7046V21.707C84.6395 21.9805 84.8932 22.3052 85.0662 22.6626C85.2393 23.02 85.3284 23.403 85.3284 23.7898C85.3284 24.1766 85.2393 24.5597 85.0662 24.917C84.8932 25.2744 84.6395 25.5991 84.3196 25.8727L81.8842 27.9557L79.4483 25.8727C78.8022 25.3199 78.4391 24.5702 78.4391 23.7886C78.4391 23.007 78.8022 22.2573 79.4483 21.7046ZM69.7056 38.3729C69.2238 38.7852 68.6099 39.0659 67.9415 39.1797C67.2731 39.2935 66.5803 39.2351 65.9506 39.0122C65.321 38.7892 64.7828 38.4115 64.4042 37.9268C64.0255 37.4422 63.8234 36.8725 63.8234 36.2896C63.8234 35.7068 64.0255 35.137 64.4042 34.6524C64.7828 34.1678 65.321 33.7901 65.9506 33.567C66.5803 33.3441 67.2731 33.2858 67.9415 33.3996C68.6099 33.5133 69.2238 33.7941 69.7056 34.2063L72.1023 36.3192L69.7056 38.3729ZM72.1377 34.2052L71.7313 33.8565C71.2611 33.2893 71.0405 32.5983 71.1084 31.9056C71.1763 31.2128 71.5283 30.5629 72.1023 30.0706C72.7417 30.6178 73.1038 31.3581 73.1104 32.1316C73.117 32.9053 72.7677 33.65 72.1377 34.2052ZM72.1038 27.986L69.6673 25.9026C69.1856 25.4907 68.8577 24.9658 68.7248 24.3945C68.5919 23.8231 68.6601 23.2309 68.9208 22.6926C69.1815 22.1544 69.6229 21.6944 70.1892 21.3707C70.7556 21.0471 71.4215 20.8743 72.1026 20.8743C72.7838 20.8743 73.4496 21.0471 74.016 21.3707C74.5824 21.6944 75.0237 22.1544 75.2844 22.6926C75.5451 23.2309 75.6134 23.8231 75.4805 24.3945C75.3476 24.9658 75.0196 25.4907 74.5379 25.9026L72.1038 27.986ZM74.5787 36.2895C75.227 35.7509 76.097 35.4521 77.0008 35.4575C77.9047 35.4629 78.7697 35.7721 79.4091 36.3185C78.7608 36.8571 77.8908 37.156 76.9869 37.1506C76.0831 37.1452 75.2181 36.8358 74.5787 36.2895ZM80.6663 28.9974C80.1865 29.4078 79.8058 29.8949 79.546 30.4311C79.2863 30.9673 79.1527 31.542 79.1527 32.1224C79.1527 32.7027 79.2863 33.2775 79.546 33.8136C79.8058 34.3498 80.1865 34.837 80.6663 35.2473C79.6969 34.4187 78.3824 33.9532 77.0119 33.9532C75.6414 33.9532 74.3269 34.4187 73.3575 35.2473L73.3564 35.2463C74.3095 34.415 74.8407 33.2956 74.8343 32.1313C74.8279 30.9671 74.2847 29.8519 73.3224 29.0283L75.7555 26.9441C76.3227 26.4607 76.749 25.87 77 25.2196C77.2531 25.8579 77.6748 26.4377 78.2324 26.914L80.6663 28.9972V28.9974ZM81.8833 30.0382C82.5288 30.591 82.8913 31.3404 82.8913 32.1216C82.8913 32.9029 82.5288 33.6523 81.8833 34.2051V34.2062C81.238 33.653 80.8758 32.9036 80.8759 32.1223C80.8759 31.3409 81.2383 30.5914 81.8835 30.0383L81.8833 30.0382ZM89.154 38.4035C88.8342 38.6772 88.4546 38.8943 88.0367 39.0424C87.6188 39.1904 87.1709 39.2667 86.7186 39.2667C86.2663 39.2667 85.8183 39.1904 85.4004 39.0424C84.9825 38.8943 84.6029 38.6772 84.2831 38.4035L81.8476 36.3201L84.283 34.2361V34.2351C84.9293 33.6827 85.8058 33.3725 86.7195 33.3727C87.6333 33.3729 88.5095 33.6836 89.1555 34.2364C89.8013 34.7891 90.1641 35.5387 90.1639 36.3202C90.1636 37.1017 89.8003 37.8511 89.154 38.4035Z" fill="#CCCCCC"/>
</g>
<path d="M65.9467 30.1729C66.2752 30.1729 66.5349 30.2555 66.7259 30.4208C66.917 30.5839 67.0125 30.8179 67.0125 31.1227H66.3331C66.3331 30.9939 66.2988 30.892 66.2301 30.8168C66.1635 30.7417 66.068 30.7041 65.9435 30.7041C65.7997 30.7041 65.6934 30.7492 65.6247 30.8394C65.5582 30.9295 65.5249 31.0551 65.5249 31.2161V31.4222C65.5249 31.581 65.5582 31.7066 65.6247 31.7989C65.6934 31.889 65.7975 31.9341 65.9371 31.9341C66.0744 31.9341 66.1786 31.8987 66.2494 31.8279C66.3202 31.757 66.3556 31.6572 66.3556 31.5284H67.0125C67.0125 31.8311 66.9191 32.0629 66.7324 32.2239C66.5478 32.3849 66.2859 32.4654 65.9467 32.4654C65.5689 32.4654 65.2824 32.3688 65.087 32.1756C64.8938 31.9824 64.7972 31.6969 64.7972 31.3191C64.7972 30.9413 64.8938 30.6558 65.087 30.4626C65.2824 30.2695 65.5689 30.1729 65.9467 30.1729ZM69.6796 30.688C69.9779 30.688 70.2119 30.7642 70.3815 30.9166C70.5532 31.0669 70.6391 31.2869 70.6391 31.5767C70.6391 31.8665 70.5532 32.0876 70.3815 32.24C70.2119 32.3903 69.9779 32.4654 69.6796 32.4654C69.3812 32.4654 69.1472 32.3903 68.9776 32.24C68.8081 32.0897 68.7233 31.8686 68.7233 31.5767C68.7233 31.2848 68.8081 31.0637 68.9776 30.9134C69.1472 30.7632 69.3812 30.688 69.6796 30.688ZM69.6796 31.1227C69.4692 31.1227 69.364 31.244 69.364 31.4866V31.6701C69.364 31.9105 69.4692 32.0307 69.6796 32.0307C69.8921 32.0307 69.9983 31.9105 69.9983 31.6701V31.4866C69.9983 31.244 69.8921 31.1227 69.6796 31.1227ZM73.6335 32.4268L73.5788 32.1853C73.4543 32.372 73.274 32.4654 73.0379 32.4654C72.8082 32.4654 72.6311 32.3903 72.5066 32.24C72.3821 32.0897 72.3198 31.8676 72.3198 31.5735C72.3198 31.2816 72.3821 31.0615 72.5066 30.9134C72.6311 30.7632 72.8082 30.688 73.0379 30.688C73.2332 30.688 73.392 30.7535 73.5144 30.8844V30.0924H74.1552V32.4268H73.6335ZM73.2375 31.1614C73.0529 31.1614 72.9606 31.2719 72.9606 31.493V31.6637C72.9606 31.8826 73.0529 31.9921 73.2375 31.9921C73.3319 31.9921 73.4028 31.9588 73.45 31.8923C73.4972 31.8257 73.5208 31.7388 73.5208 31.6315V31.5252C73.5208 31.4179 73.4972 31.3309 73.45 31.2644C73.4028 31.1957 73.3319 31.1614 73.2375 31.1614ZM76.8727 30.688C77.1839 30.688 77.4211 30.761 77.5843 30.907C77.7496 31.053 77.8322 31.2762 77.8322 31.5767V31.6862H76.5571C76.5571 31.8085 76.584 31.9008 76.6376 31.9631C76.6934 32.0253 76.7804 32.0565 76.8984 32.0565C77.0058 32.0565 77.0841 32.0339 77.1335 31.9889C77.185 31.9438 77.2108 31.8837 77.2108 31.8085H77.8322C77.8322 32.0146 77.7539 32.1756 77.5972 32.2915C77.4405 32.4074 77.2118 32.4654 76.9113 32.4654C76.5958 32.4654 76.3511 32.3924 76.1772 32.2464C76.0033 32.0983 75.9164 31.8751 75.9164 31.5767C75.9164 31.2848 76.0012 31.0637 76.1708 30.9134C76.3403 30.7632 76.5743 30.688 76.8727 30.688ZM76.8984 31.097C76.6967 31.097 76.584 31.1925 76.5604 31.3835H77.185C77.185 31.2955 77.1593 31.2258 77.1077 31.1742C77.0584 31.1227 76.9886 31.097 76.8984 31.097ZM80.2825 30.0537C80.3297 30.0537 80.3887 30.0602 80.4596 30.073C80.5304 30.0838 80.5873 30.0967 80.6302 30.1117V30.4884H80.4821C80.4134 30.4884 80.3662 30.5013 80.3405 30.527C80.3147 30.5528 80.3018 30.5968 80.3018 30.6591V30.7267H80.6302V31.1614H80.3018V32.4268H79.6611V31.1614H79.4228V30.7267H79.6611V30.6558C79.6611 30.4369 79.7147 30.2823 79.8221 30.1922C79.9294 30.0999 80.0829 30.0537 80.2825 30.0537ZM83.4594 32.3752C83.3714 32.6135 83.263 32.7938 83.1342 32.9162C83.0076 33.0407 82.8294 33.1029 82.5997 33.1029C82.4602 33.1029 82.3368 33.0836 82.2295 33.045V32.6618H82.487C82.648 32.6618 82.7436 32.5835 82.7736 32.4268L82.0974 30.7267H82.7865L83.1117 31.8568H83.1342L83.4337 30.7267H84.0648L83.4594 32.3752ZM87.9586 31.5349C87.9586 31.8375 87.8631 32.0683 87.6721 32.2271C87.481 32.386 87.2095 32.4654 86.8574 32.4654C86.5054 32.4654 86.2328 32.386 86.0396 32.2271C85.8486 32.0683 85.753 31.8375 85.753 31.5349V30.2115H86.4646V31.5252C86.4646 31.6497 86.4979 31.7495 86.5644 31.8246C86.631 31.8976 86.7276 31.9341 86.8542 31.9341C86.9809 31.9341 87.0775 31.8966 87.144 31.8214C87.2127 31.7463 87.247 31.6476 87.247 31.5252V30.2115H87.9586V31.5349ZM89.9163 32.4268V30.2115H90.6279V32.4268H89.9163Z" fill="black"/>
<defs>
<filter id="filter0_f_454_3424" x="4.17509" y="255.892" width="472.494" height="46.6308" filterUnits="userSpaceOnUse" color-interpolation-filters="sRGB">
<feFlood flood-opacity="0" result="BackgroundImageFix"/>
<feBlend mode="normal" in="SourceGraphic" in2="BackgroundImageFix" result="shape"/>
<feGaussianBlur stdDeviation="10.4681" result="effect1_foregroundBlur_454_3424"/>
</filter>
<linearGradient id="paint0_linear_454_3424" x1="0.367187" y1="266.359" x2="479.997" y2="266.359" gradientUnits="userSpaceOnUse">
<stop stop-color="#0D1012"/>
<stop offset="0.0295345" stop-color="#CAD4DB"/>
<stop offset="0.0625" stop-color="#242729"/>
<stop offset="0.133609" stop-color="#A3ACB1"/>
<stop offset="0.865967" stop-color="#A3ACB1"/>
<stop offset="0.941937" stop-color="#242729"/>
<stop offset="0.971275" stop-color="#CAD4DB"/>
<stop offset="0.996436" stop-color="#0D1012"/>
</linearGradient>
<linearGradient id="paint1_linear_454_3424" x1="240.182" y1="270.642" x2="240.182" y2="276.351" gradientUnits="userSpaceOnUse">
<stop stop-color="#7A7F83"/>
<stop offset="1" stop-color="#0B0B0E"/>
</linearGradient>
<linearGradient id="paint2_linear_454_3424" x1="208.541" y1="266.121" x2="273.728" y2="266.121" gradientUnits="userSpaceOnUse">
<stop stop-color="#3C3C3C"/>
<stop offset="0.317518" stop-color="#3C3C3C" stop-opacity="0"/>
<stop offset="0.660584" stop-color="#3C3C3C" stop-opacity="0"/>
<stop offset="1" stop-color="#444444"/>
</linearGradient>
</defs>
</svg>
