<svg width="394" height="324" viewBox="0 0 394 324" fill="none" xmlns="http://www.w3.org/2000/svg">
<path fill-rule="evenodd" clip-rule="evenodd" d="M23.5234 105.564C36.3839 100.059 50.3128 96.4456 64.9954 95.1013C140.367 88.2006 207.062 143.707 213.963 219.079C216.141 242.872 212.1 265.801 203.179 286.256C190.318 291.761 176.39 295.374 161.707 296.719C86.3353 303.62 19.6404 248.113 12.7397 172.741C10.5613 148.948 14.602 126.019 23.5234 105.564Z" fill="#BC94B0"/>
<path fill-rule="evenodd" clip-rule="evenodd" d="M197.072 32.1235C210.137 37.1242 222.652 44.2263 234.129 53.4821C293.043 100.996 302.285 187.273 254.771 246.188C239.772 264.786 220.91 278.434 200.265 286.909C187.2 281.909 174.685 274.807 163.208 265.551C104.294 218.037 95.052 131.759 142.566 72.845C157.565 54.2468 176.427 40.5987 197.072 32.1235Z" fill="#BC94B0"/>
<path fill-rule="evenodd" clip-rule="evenodd" d="M362.251 104.72C368.293 117.337 372.49 131.101 374.452 145.713C384.524 220.727 331.878 289.703 256.865 299.775C233.184 302.954 210.106 299.884 189.292 291.832C183.25 279.215 179.053 265.451 177.091 250.839C167.019 175.825 219.665 106.849 294.678 96.7774C318.359 93.5978 341.437 96.6684 362.251 104.72Z" fill="#BC94B0"/>
<mask id="path-4-inside-1_565_3193" fill="white">
<path fill-rule="evenodd" clip-rule="evenodd" d="M56.4299 196.16C85.922 149.341 138.077 118.233 197.498 118.233C256.918 118.233 309.073 149.341 338.565 196.16C309.073 242.978 256.918 274.086 197.498 274.086C138.077 274.086 85.922 242.978 56.4299 196.16Z"/>
</mask>
<path d="M56.4299 196.16L47.3354 190.431L43.7267 196.16L47.3354 201.889L56.4299 196.16ZM338.565 196.16L347.66 201.889L351.268 196.16L347.66 190.431L338.565 196.16ZM65.5245 201.889C93.1313 158.063 141.922 128.982 197.498 128.982V107.485C134.232 107.485 78.7127 140.62 47.3354 190.431L65.5245 201.889ZM197.498 128.982C253.073 128.982 301.864 158.063 329.471 201.889L347.66 190.431C316.282 140.62 260.763 107.485 197.498 107.485V128.982ZM329.471 190.431C301.864 234.257 253.073 263.338 197.498 263.338V284.835C260.763 284.835 316.282 251.7 347.66 201.889L329.471 190.431ZM197.498 263.338C141.922 263.338 93.1313 234.257 65.5245 190.431L47.3354 201.889C78.7127 251.7 134.232 284.835 197.498 284.835V263.338Z" fill="#DCBB76" mask="url(#path-4-inside-1_565_3193)"/>
<circle cx="197.498" cy="196.16" r="61.8038" fill="#D3F5FF" stroke="#DCBB76" stroke-width="10.7485"/>
<circle cx="197.498" cy="196.16" r="42.9939" fill="#DCBB76"/>
<circle cx="197.498" cy="196.16" r="34.9326" fill="#06456C"/>
</svg>
