<svg width="504" height="318" viewBox="0 0 504 318" fill="none" xmlns="http://www.w3.org/2000/svg">
<g filter="url(#filter0_f_454_3780)">
<ellipse cx="252.222" cy="292.857" rx="225.88" ry="2.49591" fill="black"/>
</g>
<path d="M49.8019 14.3131C49.8019 6.86941 55.8362 0.83512 63.2798 0.83512H442.659C450.102 0.83512 456.136 6.86939 456.136 14.313V274.886C456.136 275.713 455.466 276.384 454.639 276.384H51.2995C50.4724 276.384 49.8019 275.713 49.8019 274.886V14.3131Z" fill="#1A202C" stroke="#4A5568" stroke-width="0.998365"/>
<path d="M51.7988 13.8131C51.7988 7.74787 56.7156 2.83105 62.7808 2.83105H443.158C449.223 2.83105 454.14 7.74787 454.14 13.8131V266.399H51.7988V13.8131Z" fill="black"/>
<path d="M232.373 267.179H233.419L234.821 270.599H234.876L236.277 267.179H237.323V271.899H236.503V268.657H236.459L235.155 271.885H234.542L233.237 268.65H233.194V271.899H232.373V267.179ZM239.236 271.97C239.012 271.97 238.81 271.93 238.63 271.851C238.452 271.769 238.31 271.649 238.206 271.491C238.103 271.333 238.051 271.138 238.051 270.906C238.051 270.706 238.088 270.541 238.162 270.41C238.236 270.28 238.336 270.175 238.464 270.097C238.591 270.018 238.735 269.959 238.895 269.919C239.056 269.878 239.223 269.848 239.395 269.83C239.602 269.808 239.771 269.789 239.9 269.772C240.029 269.753 240.122 269.726 240.181 269.689C240.241 269.651 240.271 269.591 240.271 269.512V269.498C240.271 269.324 240.219 269.19 240.116 269.094C240.013 268.999 239.865 268.952 239.671 268.952C239.467 268.952 239.305 268.996 239.185 269.085C239.067 269.174 238.987 269.28 238.946 269.401L238.167 269.29C238.228 269.075 238.33 268.895 238.471 268.751C238.612 268.605 238.785 268.496 238.989 268.424C239.194 268.35 239.42 268.313 239.667 268.313C239.837 268.313 240.007 268.333 240.176 268.373C240.345 268.413 240.5 268.479 240.639 268.571C240.779 268.662 240.891 268.786 240.976 268.942C241.062 269.099 241.105 269.295 241.105 269.53V271.899H240.303V271.413H240.275C240.225 271.511 240.153 271.603 240.061 271.689C239.97 271.774 239.856 271.842 239.718 271.894C239.581 271.945 239.42 271.97 239.236 271.97ZM239.453 271.357C239.62 271.357 239.765 271.324 239.888 271.258C240.011 271.191 240.106 271.102 240.172 270.991C240.239 270.88 240.273 270.76 240.273 270.629V270.212C240.247 270.234 240.202 270.254 240.139 270.272C240.078 270.29 240.009 270.307 239.932 270.32C239.855 270.334 239.779 270.346 239.704 270.357C239.628 270.368 239.563 270.377 239.508 270.385C239.383 270.402 239.272 270.429 239.174 270.468C239.075 270.506 238.998 270.56 238.941 270.629C238.884 270.697 238.856 270.784 238.856 270.892C238.856 271.046 238.912 271.161 239.024 271.24C239.136 271.318 239.279 271.357 239.453 271.357ZM243.488 271.968C243.134 271.968 242.831 271.89 242.577 271.735C242.325 271.58 242.131 271.366 241.994 271.092C241.859 270.817 241.792 270.501 241.792 270.143C241.792 269.783 241.861 269.466 241.999 269.191C242.137 268.915 242.332 268.7 242.584 268.546C242.838 268.391 243.137 268.313 243.483 268.313C243.77 268.313 244.025 268.366 244.246 268.472C244.469 268.577 244.646 268.725 244.778 268.917C244.91 269.107 244.986 269.33 245.004 269.585H244.207C244.174 269.415 244.098 269.273 243.976 269.159C243.856 269.044 243.696 268.986 243.495 268.986C243.324 268.986 243.174 269.032 243.045 269.124C242.916 269.215 242.816 269.346 242.743 269.516C242.673 269.687 242.637 269.891 242.637 270.129C242.637 270.37 242.673 270.578 242.743 270.751C242.814 270.923 242.913 271.056 243.041 271.15C243.17 271.242 243.321 271.288 243.495 271.288C243.618 271.288 243.727 271.265 243.824 271.219C243.922 271.171 244.005 271.103 244.071 271.014C244.137 270.925 244.182 270.817 244.207 270.689H245.004C244.984 270.94 244.91 271.161 244.783 271.355C244.655 271.547 244.482 271.698 244.262 271.807C244.042 271.914 243.784 271.968 243.488 271.968ZM245.726 271.899V267.179H246.56V268.945H246.595C246.638 268.859 246.698 268.767 246.777 268.67C246.855 268.572 246.961 268.488 247.095 268.419C247.228 268.349 247.399 268.313 247.606 268.313C247.88 268.313 248.126 268.383 248.346 268.523C248.567 268.661 248.742 268.866 248.871 269.138C249.002 269.409 249.067 269.74 249.067 270.134C249.067 270.522 249.004 270.853 248.876 271.125C248.749 271.397 248.575 271.604 248.355 271.747C248.136 271.89 247.887 271.961 247.609 271.961C247.406 271.961 247.238 271.927 247.104 271.86C246.97 271.792 246.863 271.711 246.781 271.615C246.701 271.519 246.639 271.427 246.595 271.341H246.546V271.899H245.726ZM246.544 270.129C246.544 270.358 246.576 270.558 246.641 270.731C246.707 270.903 246.801 271.037 246.924 271.134C247.049 271.229 247.199 271.277 247.376 271.277C247.56 271.277 247.715 271.228 247.839 271.129C247.964 271.029 248.057 270.893 248.12 270.721C248.185 270.548 248.217 270.35 248.217 270.129C248.217 269.909 248.186 269.714 248.123 269.544C248.06 269.373 247.966 269.24 247.841 269.143C247.717 269.046 247.562 268.998 247.376 268.998C247.198 268.998 247.046 269.044 246.922 269.138C246.797 269.232 246.703 269.363 246.638 269.532C246.575 269.701 246.544 269.9 246.544 270.129ZM251.321 271.968C250.975 271.968 250.675 271.892 250.422 271.74C250.168 271.588 249.972 271.375 249.832 271.102C249.694 270.828 249.624 270.509 249.624 270.143C249.624 269.777 249.694 269.457 249.832 269.182C249.972 268.907 250.168 268.693 250.422 268.541C250.675 268.389 250.975 268.313 251.321 268.313C251.666 268.313 251.966 268.389 252.219 268.541C252.473 268.693 252.669 268.907 252.807 269.182C252.947 269.457 253.017 269.777 253.017 270.143C253.017 270.509 252.947 270.828 252.807 271.102C252.669 271.375 252.473 271.588 252.219 271.74C251.966 271.892 251.666 271.968 251.321 271.968ZM251.325 271.3C251.513 271.3 251.669 271.248 251.795 271.145C251.921 271.041 252.015 270.901 252.076 270.726C252.139 270.551 252.171 270.356 252.171 270.141C252.171 269.924 252.139 269.728 252.076 269.553C252.015 269.376 251.921 269.236 251.795 269.131C251.669 269.027 251.513 268.975 251.325 268.975C251.133 268.975 250.973 269.027 250.846 269.131C250.72 269.236 250.625 269.376 250.562 269.553C250.501 269.728 250.47 269.924 250.47 270.141C250.47 270.356 250.501 270.551 250.562 270.726C250.625 270.901 250.72 271.041 250.846 271.145C250.973 271.248 251.133 271.3 251.325 271.3ZM255.269 271.968C254.923 271.968 254.623 271.892 254.37 271.74C254.116 271.588 253.92 271.375 253.78 271.102C253.642 270.828 253.573 270.509 253.573 270.143C253.573 269.777 253.642 269.457 253.78 269.182C253.92 268.907 254.116 268.693 254.37 268.541C254.623 268.389 254.923 268.313 255.269 268.313C255.614 268.313 255.914 268.389 256.167 268.541C256.421 268.693 256.617 268.907 256.755 269.182C256.895 269.457 256.965 269.777 256.965 270.143C256.965 270.509 256.895 270.828 256.755 271.102C256.617 271.375 256.421 271.588 256.167 271.74C255.914 271.892 255.614 271.968 255.269 271.968ZM255.273 271.3C255.461 271.3 255.617 271.248 255.743 271.145C255.869 271.041 255.963 270.901 256.025 270.726C256.088 270.551 256.119 270.356 256.119 270.141C256.119 269.924 256.088 269.728 256.025 269.553C255.963 269.376 255.869 269.236 255.743 269.131C255.617 269.027 255.461 268.975 255.273 268.975C255.081 268.975 254.921 269.027 254.794 269.131C254.668 269.236 254.574 269.376 254.511 269.553C254.449 269.728 254.418 269.924 254.418 270.141C254.418 270.356 254.449 270.551 254.511 270.726C254.574 270.901 254.668 271.041 254.794 271.145C254.921 271.248 255.081 271.3 255.273 271.3ZM258.433 270.788L258.431 269.781H258.565L259.837 268.359H260.812L259.247 270.101H259.074L258.433 270.788ZM257.673 271.899V267.179H258.507V271.899H257.673ZM259.894 271.899L258.742 270.288L259.304 269.7L260.892 271.899H259.894ZM263.014 271.899V267.179H264.784C265.146 267.179 265.451 267.247 265.696 267.382C265.944 267.517 266.13 267.703 266.256 267.94C266.384 268.175 266.448 268.442 266.448 268.742C266.448 269.044 266.384 269.313 266.256 269.548C266.129 269.783 265.941 269.969 265.692 270.104C265.443 270.237 265.136 270.304 264.772 270.304H263.599V269.601H264.657C264.869 269.601 265.043 269.565 265.178 269.491C265.313 269.417 265.413 269.316 265.477 269.187C265.544 269.058 265.577 268.909 265.577 268.742C265.577 268.574 265.544 268.427 265.477 268.299C265.413 268.172 265.312 268.073 265.176 268.002C265.04 267.93 264.866 267.894 264.652 267.894H263.869V271.899H263.014ZM267.153 271.899V268.359H267.962V268.949H267.999C268.064 268.745 268.174 268.587 268.331 268.477C268.489 268.365 268.67 268.309 268.873 268.309C268.919 268.309 268.97 268.311 269.027 268.315C269.085 268.319 269.134 268.324 269.172 268.332V269.099C269.137 269.087 269.081 269.076 269.004 269.067C268.929 269.056 268.856 269.051 268.785 269.051C268.633 269.051 268.496 269.084 268.375 269.15C268.255 269.214 268.16 269.304 268.091 269.419C268.022 269.535 267.988 269.667 267.988 269.818V271.899H267.153ZM271.125 271.968C270.779 271.968 270.479 271.892 270.226 271.74C269.972 271.588 269.776 271.375 269.636 271.102C269.498 270.828 269.428 270.509 269.428 270.143C269.428 269.777 269.498 269.457 269.636 269.182C269.776 268.907 269.972 268.693 270.226 268.541C270.479 268.389 270.779 268.313 271.125 268.313C271.47 268.313 271.77 268.389 272.023 268.541C272.277 268.693 272.473 268.907 272.611 269.182C272.751 269.457 272.821 269.777 272.821 270.143C272.821 270.509 272.751 270.828 272.611 271.102C272.473 271.375 272.277 271.588 272.023 271.74C271.77 271.892 271.47 271.968 271.125 271.968ZM271.129 271.3C271.317 271.3 271.473 271.248 271.599 271.145C271.725 271.041 271.819 270.901 271.88 270.726C271.943 270.551 271.975 270.356 271.975 270.141C271.975 269.924 271.943 269.728 271.88 269.553C271.819 269.376 271.725 269.236 271.599 269.131C271.473 269.027 271.317 268.975 271.129 268.975C270.937 268.975 270.777 269.027 270.65 269.131C270.524 269.236 270.429 269.376 270.366 269.553C270.305 269.728 270.274 269.924 270.274 270.141C270.274 270.356 270.305 270.551 270.366 270.726C270.429 270.901 270.524 271.041 270.65 271.145C270.777 271.248 270.937 271.3 271.129 271.3Z" fill="#A0AEC0"/>
<path d="M0.384766 275.884C0.384766 275.332 0.831749 274.885 1.38313 274.885H502.562C503.114 274.885 503.561 275.332 503.561 275.884V283.871H0.384766V275.884Z" fill="#A3ACB1"/>
<path d="M0.384766 275.884C0.384766 275.332 0.831749 274.885 1.38313 274.885H502.562C503.114 274.885 503.561 275.332 503.561 275.884V283.871H0.384766V275.884Z" fill="url(#paint0_linear_454_3780)"/>
<path d="M0.384766 283.871H503.561L493.4 285.92C480.405 288.541 467.182 289.861 453.925 289.861H49.2592C34.6906 289.861 20.1657 288.266 5.94401 285.106L0.384766 283.871Z" fill="#647279"/>
<path d="M0.384766 283.871H503.561L493.4 285.92C480.405 288.541 467.182 289.861 453.925 289.861H49.2592C34.6906 289.861 20.1657 288.266 5.94401 285.106L0.384766 283.871Z" fill="url(#paint1_linear_454_3780)"/>
<path fill-rule="evenodd" clip-rule="evenodd" d="M210.557 274.885C210.814 278.788 214.06 281.874 218.028 281.874H286.416C290.384 281.874 293.63 278.788 293.887 274.885H210.557Z" fill="#96A1A8"/>
<path fill-rule="evenodd" clip-rule="evenodd" d="M210.557 274.885C210.814 278.788 214.06 281.874 218.028 281.874H286.416C290.384 281.874 293.63 278.788 293.887 274.885H210.557Z" fill="url(#paint2_linear_454_3780)"/>
<rect width="366.671" height="238.336" transform="translate(68.1387 14.7837)" fill="white"/>
<mask id="mask0_454_3780" style="mask-type:luminance" maskUnits="userSpaceOnUse" x="77" y="17" width="26" height="18">
<path d="M102.229 17.0762H77.3066V34.9577H102.229V17.0762Z" fill="white"/>
</mask>
<g mask="url(#mask0_454_3780)">
<path d="M100.962 28.6448C100.342 28.1153 99.5484 27.7595 98.6867 27.6244C97.8249 27.4893 96.9354 27.5813 96.1362 27.8884C96.1607 27.3797 96.0617 26.8721 95.8454 26.3978C95.6293 25.9234 95.3003 25.4925 94.8797 25.1322H94.8776L96.9163 23.3887C97.3195 23.0458 97.6396 22.6382 97.8584 22.1893C98.0771 21.7404 98.1901 21.259 98.1909 20.7726C98.1918 20.2863 98.0805 19.8046 97.8634 19.3552C97.6461 18.9057 97.3275 18.4973 96.9255 18.1533C96.5235 17.8094 96.0462 17.5366 95.5207 17.3507C94.9953 17.1648 94.4321 17.0693 93.8635 17.0698C93.2949 17.0703 92.7319 17.1668 92.207 17.3536C91.682 17.5405 91.2053 17.8141 90.8042 18.1588C90.3291 18.5635 89.9727 19.0586 89.764 19.6035C89.5536 19.077 89.2067 18.5978 88.7495 18.2018C88.2923 17.8059 87.7364 17.5033 87.1233 17.3167C86.5103 17.1301 85.8559 17.0643 85.209 17.1242C84.5621 17.184 83.9393 17.3681 83.3872 17.6625C82.835 17.9569 82.3677 18.3542 82.0201 18.8246C81.6724 19.2951 81.4535 19.8266 81.3796 20.3795C81.3056 20.9324 81.3786 21.4925 81.5931 22.0179C81.8075 22.5433 82.1579 23.0206 82.6181 23.414L84.657 25.159L84.6553 25.1582C84.2419 25.5118 83.9169 25.9336 83.7003 26.398C83.4836 26.8625 83.3799 27.3598 83.3953 27.8596C82.676 27.5843 81.8824 27.4824 81.1004 27.5649C80.3183 27.6474 79.5774 27.9111 78.9579 28.3276C78.3384 28.7441 77.8638 29.2975 77.5854 29.928C77.307 30.5585 77.2354 31.242 77.3784 31.9048C77.5213 32.5676 77.8734 33.1843 78.3965 33.6884C78.9195 34.1924 79.5938 34.5646 80.3463 34.7646C81.0988 34.9647 81.9009 34.985 82.6659 34.8234C83.4309 34.6618 84.1297 34.3244 84.6868 33.8478L86.6959 32.1321C87.5068 32.8255 88.6066 33.215 89.7532 33.215C90.8999 33.215 91.9997 32.8255 92.8106 32.1321L94.8464 33.8739C95.6576 34.5655 96.7565 34.9535 97.9019 34.9527C99.0474 34.952 100.146 34.5626 100.956 33.87C101.766 33.1774 102.221 32.2382 102.222 31.2586C102.223 30.279 101.77 29.3391 100.962 28.645V28.6448ZM91.8219 19.0298C92.3626 18.5678 93.0957 18.3084 93.8599 18.3084C94.6243 18.3084 95.3574 18.5678 95.8981 19.0298V19.0318C96.1657 19.2606 96.378 19.5324 96.5228 19.8314C96.6676 20.1304 96.7422 20.451 96.7422 20.7746C96.7422 21.0983 96.6676 21.4188 96.5228 21.7179C96.378 22.0169 96.1657 22.2886 95.8981 22.5175L93.8602 24.2605L91.8219 22.5175C91.2812 22.055 90.9775 21.4277 90.9775 20.7736C90.9775 20.1196 91.2812 19.4923 91.8219 19.0298ZM83.6695 32.9774C83.2663 33.3224 82.7526 33.5572 82.1933 33.6524C81.6341 33.7477 81.0543 33.6989 80.5274 33.5123C80.0006 33.3257 79.5502 33.0097 79.2334 32.6041C78.9165 32.1986 78.7474 31.7218 78.7474 31.2341C78.7474 30.7464 78.9165 30.2697 79.2334 29.8641C79.5502 29.4586 80.0006 29.1426 80.5274 28.9559C81.0543 28.7694 81.6341 28.7206 82.1933 28.8158C82.7526 28.911 83.2663 29.146 83.6695 29.4909L85.675 31.2589L83.6695 32.9774ZM85.7046 29.4899L85.3645 29.1981C84.9711 28.7236 84.7865 28.1454 84.8433 27.5657C84.9001 26.986 85.1947 26.4422 85.675 26.0302C86.21 26.4881 86.513 27.1076 86.5185 27.7548C86.5241 28.4022 86.2317 29.0254 85.7046 29.4899ZM85.6762 24.2859L83.6374 22.5426C83.2344 22.1979 82.9599 21.7587 82.8488 21.2806C82.7376 20.8025 82.7946 20.3069 83.0128 19.8565C83.2309 19.4062 83.6003 19.0212 84.0742 18.7504C84.5481 18.4796 85.1053 18.335 85.6752 18.335C86.2452 18.335 86.8024 18.4796 87.2763 18.7504C87.7502 19.0212 88.1196 19.4062 88.3377 19.8565C88.5558 20.3069 88.6129 20.8025 88.5017 21.2806C88.3905 21.7587 88.1161 22.1979 87.713 22.5426L85.6762 24.2859ZM87.7472 31.234C88.2896 30.7833 89.0176 30.5333 89.7739 30.5378C90.5302 30.5423 91.254 30.8011 91.7891 31.2582C91.2466 31.709 90.5186 31.9591 89.7623 31.9546C89.006 31.95 88.2822 31.6912 87.7472 31.234ZM92.8411 25.1322C92.4396 25.4756 92.121 25.8832 91.9036 26.3319C91.6863 26.7805 91.5745 27.2615 91.5745 27.7471C91.5745 28.2327 91.6863 28.7136 91.9036 29.1623C92.121 29.611 92.4396 30.0187 92.8411 30.362C92.0299 29.6686 90.93 29.2791 89.7832 29.2791C88.6364 29.2791 87.5365 29.6686 86.7253 30.362L86.7244 30.3611C87.5219 29.6655 87.9664 28.7288 87.961 27.7546C87.9557 26.7804 87.5011 25.8472 86.6959 25.1581L88.7319 23.414C89.2065 23.0096 89.5632 22.5153 89.7732 21.9711C89.985 22.5052 90.3379 22.9903 90.8045 23.3889L92.8411 25.132V25.1322ZM93.8594 26.0031C94.3995 26.4657 94.7029 27.0928 94.7029 27.7465C94.7029 28.4002 94.3995 29.0273 93.8594 29.4898V29.4908C93.3195 29.0279 93.0164 28.4008 93.0165 27.747C93.0165 27.0932 93.3197 26.466 93.8596 26.0032L93.8594 26.0031ZM99.9434 33.003C99.6758 33.2319 99.3581 33.4136 99.0085 33.5376C98.6588 33.6614 98.2839 33.7252 97.9055 33.7252C97.527 33.7252 97.1522 33.6614 96.8025 33.5376C96.4528 33.4136 96.1352 33.2319 95.8675 33.003L93.8296 31.2596L95.8674 29.5158V29.515C96.4083 29.0527 97.1417 28.7932 97.9062 28.7933C98.6709 28.7935 99.4041 29.0535 99.9446 29.516C100.485 29.9785 100.789 30.6057 100.788 31.2597C100.788 31.9136 100.484 32.5407 99.9434 33.003Z" fill="#CCCCCC"/>
</g>
<path d="M80.5206 25.6037C80.7954 25.6037 81.0128 25.6729 81.1726 25.8112C81.3325 25.9477 81.4124 26.1435 81.4124 26.3986H80.8439C80.8439 26.2908 80.8152 26.2055 80.7577 26.1426C80.702 26.0797 80.6221 26.0483 80.5179 26.0483C80.3976 26.0483 80.3087 26.086 80.2512 26.1615C80.1955 26.2369 80.1677 26.342 80.1677 26.4767V26.6491C80.1677 26.782 80.1955 26.8871 80.2512 26.9644C80.3087 27.0398 80.3958 27.0775 80.5125 27.0775C80.6275 27.0775 80.7146 27.0479 80.7739 26.9886C80.8331 26.9293 80.8628 26.8458 80.8628 26.738H81.4124C81.4124 26.9913 81.3343 27.1853 81.178 27.32C81.0235 27.4547 80.8044 27.5221 80.5206 27.5221C80.2045 27.5221 79.9647 27.4412 79.8012 27.2796C79.6396 27.1179 79.5587 26.879 79.5587 26.5629C79.5587 26.2468 79.6396 26.0079 79.8012 25.8462C79.9647 25.6846 80.2045 25.6037 80.5206 25.6037ZM83.6441 26.0348C83.8938 26.0348 84.0896 26.0986 84.2315 26.2261C84.3752 26.3519 84.447 26.536 84.447 26.7785C84.447 27.0209 84.3752 27.2059 84.2315 27.3335C84.0896 27.4592 83.8938 27.5221 83.6441 27.5221C83.3945 27.5221 83.1987 27.4592 83.0568 27.3335C82.9149 27.2077 82.8439 27.0227 82.8439 26.7785C82.8439 26.5342 82.9149 26.3492 83.0568 26.2234C83.1987 26.0977 83.3945 26.0348 83.6441 26.0348ZM83.6441 26.3986C83.4681 26.3986 83.3801 26.5 83.3801 26.703V26.8566C83.3801 27.0578 83.4681 27.1583 83.6441 27.1583C83.822 27.1583 83.9109 27.0578 83.9109 26.8566V26.703C83.9109 26.5 83.822 26.3986 83.6441 26.3986ZM86.9527 27.4897L86.9069 27.2877C86.8027 27.4439 86.6518 27.5221 86.4543 27.5221C86.2621 27.5221 86.1139 27.4592 86.0097 27.3335C85.9055 27.2077 85.8534 27.0218 85.8534 26.7758C85.8534 26.5315 85.9055 26.3474 86.0097 26.2234C86.1139 26.0977 86.2621 26.0348 86.4543 26.0348C86.6177 26.0348 86.7506 26.0896 86.853 26.1992V25.5364H87.3892V27.4897H86.9527ZM86.6213 26.4309C86.4668 26.4309 86.3896 26.5234 86.3896 26.7084V26.8512C86.3896 27.0344 86.4668 27.126 86.6213 27.126C86.7003 27.126 86.7596 27.0982 86.7991 27.0425C86.8386 26.9868 86.8584 26.9141 86.8584 26.8243V26.7353C86.8584 26.6455 86.8386 26.5728 86.7991 26.5171C86.7596 26.4596 86.7003 26.4309 86.6213 26.4309ZM89.6631 26.0348C89.9236 26.0348 90.1221 26.0959 90.2586 26.218C90.3969 26.3402 90.466 26.527 90.466 26.7785V26.8701H89.3991C89.3991 26.9724 89.4216 27.0497 89.4665 27.1018C89.5132 27.1539 89.5859 27.1799 89.6847 27.1799C89.7745 27.1799 89.8401 27.161 89.8814 27.1233C89.9245 27.0856 89.946 27.0353 89.946 26.9724H90.466C90.466 27.1449 90.4005 27.2796 90.2694 27.3766C90.1382 27.4736 89.9469 27.5221 89.6955 27.5221C89.4314 27.5221 89.2267 27.461 89.0812 27.3389C88.9357 27.2149 88.8629 27.0281 88.8629 26.7785C88.8629 26.5342 88.9339 26.3492 89.0758 26.2234C89.2177 26.0977 89.4135 26.0348 89.6631 26.0348ZM89.6847 26.377C89.5159 26.377 89.4216 26.4569 89.4018 26.6168H89.9245C89.9245 26.5432 89.9029 26.4848 89.8598 26.4417C89.8185 26.3986 89.7601 26.377 89.6847 26.377ZM92.5164 25.5041C92.5559 25.5041 92.6053 25.5094 92.6646 25.5202C92.7238 25.5292 92.7714 25.54 92.8074 25.5526V25.8678H92.6834C92.6259 25.8678 92.5864 25.8786 92.5649 25.9001C92.5433 25.9217 92.5325 25.9585 92.5325 26.0106V26.0672H92.8074V26.4309H92.5325V27.4897H91.9964V26.4309H91.797V26.0672H91.9964V26.0079C91.9964 25.8247 92.0413 25.6954 92.1311 25.6199C92.2209 25.5427 92.3493 25.5041 92.5164 25.5041ZM95.1747 27.4466C95.1011 27.646 95.0104 27.7969 94.9026 27.8993C94.7966 28.0035 94.6476 28.0555 94.4554 28.0555C94.3386 28.0555 94.2353 28.0394 94.1455 28.007V27.6864H94.3611C94.4958 27.6864 94.5757 27.6209 94.6009 27.4897L94.0351 26.0672H94.6116L94.8838 27.0129H94.9026L95.1532 26.0672H95.6813L95.1747 27.4466ZM98.9395 26.7434C98.9395 26.9967 98.8596 27.1898 98.6998 27.3227C98.5399 27.4556 98.3127 27.5221 98.0181 27.5221C97.7235 27.5221 97.4954 27.4556 97.3338 27.3227C97.1739 27.1898 97.094 26.9967 97.094 26.7434V25.6361H97.6894V26.7353C97.6894 26.8395 97.7172 26.923 97.7729 26.9859C97.8286 27.047 97.9094 27.0775 98.0154 27.0775C98.1214 27.0775 98.2022 27.0461 98.2579 26.9832C98.3154 26.9204 98.3441 26.8377 98.3441 26.7353V25.6361H98.9395V26.7434ZM100.578 27.4897V25.6361H101.173V27.4897H100.578Z" fill="black"/>
<path d="M240.234 112.279C240.205 112.032 240.086 111.84 239.878 111.703C239.67 111.566 239.414 111.498 239.111 111.498C238.89 111.498 238.696 111.534 238.53 111.605C238.366 111.677 238.237 111.776 238.145 111.901C238.053 112.026 238.008 112.169 238.008 112.328C238.008 112.462 238.04 112.576 238.103 112.672C238.168 112.767 238.251 112.846 238.352 112.909C238.453 112.971 238.559 113.022 238.67 113.063C238.78 113.102 238.882 113.134 238.975 113.158L239.483 113.295C239.613 113.329 239.758 113.376 239.917 113.436C240.078 113.497 240.232 113.579 240.379 113.683C240.527 113.786 240.649 113.917 240.745 114.079C240.841 114.24 240.889 114.437 240.889 114.672C240.889 114.942 240.818 115.186 240.676 115.404C240.536 115.622 240.331 115.796 240.061 115.924C239.793 116.053 239.466 116.117 239.082 116.117C238.724 116.117 238.414 116.059 238.152 115.944C237.892 115.828 237.686 115.667 237.537 115.46C237.389 115.254 237.305 115.014 237.285 114.74H237.91C237.927 114.929 237.99 115.085 238.101 115.209C238.213 115.331 238.355 115.422 238.525 115.482C238.698 115.541 238.884 115.57 239.082 115.57C239.313 115.57 239.521 115.533 239.705 115.458C239.889 115.382 240.034 115.276 240.142 115.141C240.249 115.004 240.303 114.844 240.303 114.662C240.303 114.496 240.256 114.361 240.164 114.257C240.071 114.153 239.949 114.068 239.797 114.003C239.646 113.938 239.483 113.881 239.307 113.832L238.692 113.656C238.301 113.544 237.992 113.384 237.764 113.175C237.536 112.967 237.422 112.694 237.422 112.357C237.422 112.077 237.498 111.833 237.649 111.625C237.802 111.415 238.007 111.252 238.264 111.137C238.523 111.019 238.812 110.961 239.131 110.961C239.453 110.961 239.74 111.019 239.99 111.134C240.241 111.248 240.44 111.404 240.586 111.603C240.734 111.802 240.812 112.027 240.82 112.279H240.234ZM244.169 114.496V112.279H244.746V116.029H244.169V115.395H244.13C244.043 115.585 243.906 115.747 243.72 115.88C243.535 116.012 243.3 116.078 243.017 116.078C242.783 116.078 242.574 116.027 242.392 115.924C242.21 115.82 242.067 115.664 241.962 115.456C241.858 115.246 241.806 114.981 241.806 114.662V112.279H242.382V114.623C242.382 114.896 242.459 115.115 242.612 115.277C242.766 115.44 242.963 115.521 243.203 115.521C243.346 115.521 243.492 115.485 243.64 115.412C243.789 115.338 243.915 115.226 244.016 115.075C244.118 114.923 244.169 114.73 244.169 114.496ZM247.324 116.107C246.973 116.107 246.67 116.024 246.416 115.858C246.162 115.692 245.967 115.464 245.83 115.172C245.694 114.881 245.625 114.548 245.625 114.174C245.625 113.793 245.695 113.457 245.835 113.165C245.977 112.873 246.174 112.644 246.426 112.479C246.68 112.313 246.976 112.23 247.315 112.23C247.578 112.23 247.816 112.279 248.028 112.377C248.239 112.475 248.412 112.611 248.548 112.787C248.683 112.963 248.766 113.168 248.799 113.402H248.223C248.179 113.231 248.081 113.08 247.93 112.948C247.78 112.815 247.578 112.748 247.324 112.748C247.1 112.748 246.903 112.807 246.734 112.924C246.566 113.039 246.435 113.203 246.341 113.415C246.248 113.624 246.201 113.871 246.201 114.154C246.201 114.444 246.247 114.696 246.338 114.911C246.431 115.126 246.561 115.293 246.729 115.412C246.898 115.53 247.097 115.59 247.324 115.59C247.474 115.59 247.61 115.564 247.732 115.512C247.854 115.46 247.958 115.385 248.042 115.287C248.127 115.189 248.187 115.072 248.223 114.936H248.799C248.766 115.157 248.686 115.356 248.557 115.534C248.43 115.709 248.262 115.849 248.052 115.954C247.844 116.056 247.601 116.107 247.324 116.107ZM251.165 116.107C250.813 116.107 250.51 116.024 250.257 115.858C250.003 115.692 249.807 115.464 249.671 115.172C249.534 114.881 249.466 114.548 249.466 114.174C249.466 113.793 249.536 113.457 249.676 113.165C249.817 112.873 250.014 112.644 250.266 112.479C250.52 112.313 250.816 112.23 251.155 112.23C251.419 112.23 251.656 112.279 251.868 112.377C252.08 112.475 252.253 112.611 252.388 112.787C252.523 112.963 252.607 113.168 252.639 113.402H252.063C252.019 113.231 251.922 113.08 251.77 112.948C251.621 112.815 251.419 112.748 251.165 112.748C250.94 112.748 250.743 112.807 250.574 112.924C250.406 113.039 250.275 113.203 250.181 113.415C250.088 113.624 250.042 113.871 250.042 114.154C250.042 114.444 250.087 114.696 250.178 114.911C250.271 115.126 250.401 115.293 250.569 115.412C250.738 115.53 250.937 115.59 251.165 115.59C251.315 115.59 251.45 115.564 251.573 115.512C251.695 115.46 251.798 115.385 251.883 115.287C251.967 115.189 252.027 115.072 252.063 114.936H252.639C252.607 115.157 252.526 115.356 252.398 115.534C252.271 115.709 252.102 115.849 251.892 115.954C251.684 116.056 251.441 116.107 251.165 116.107ZM255.054 116.107C254.693 116.107 254.381 116.028 254.119 115.868C253.859 115.707 253.657 115.482 253.516 115.194C253.376 114.905 253.306 114.568 253.306 114.184C253.306 113.799 253.376 113.461 253.516 113.168C253.657 112.873 253.854 112.644 254.107 112.479C254.361 112.313 254.657 112.23 254.995 112.23C255.191 112.23 255.384 112.263 255.574 112.328C255.764 112.393 255.938 112.499 256.094 112.645C256.25 112.79 256.375 112.982 256.468 113.222C256.56 113.461 256.607 113.756 256.607 114.105V114.35H253.716V113.852H256.021C256.021 113.64 255.978 113.451 255.894 113.285C255.811 113.119 255.692 112.988 255.537 112.892C255.384 112.796 255.204 112.748 254.995 112.748C254.766 112.748 254.567 112.805 254.4 112.919C254.234 113.031 254.106 113.178 254.016 113.358C253.927 113.539 253.882 113.733 253.882 113.939V114.271C253.882 114.555 253.931 114.795 254.029 114.992C254.128 115.187 254.265 115.336 254.441 115.438C254.617 115.539 254.821 115.59 255.054 115.59C255.205 115.59 255.342 115.569 255.464 115.526C255.588 115.482 255.694 115.417 255.784 115.331C255.874 115.243 255.943 115.134 255.992 115.004L256.548 115.16C256.49 115.349 256.391 115.515 256.253 115.658C256.114 115.8 255.943 115.91 255.74 115.99C255.537 116.068 255.308 116.107 255.054 116.107ZM260.14 113.119L259.622 113.266C259.589 113.179 259.541 113.096 259.478 113.014C259.416 112.931 259.331 112.863 259.224 112.809C259.117 112.755 258.979 112.728 258.811 112.728C258.582 112.728 258.391 112.781 258.238 112.887C258.086 112.991 258.011 113.124 258.011 113.285C258.011 113.428 258.063 113.541 258.167 113.624C258.271 113.707 258.434 113.777 258.655 113.832L259.212 113.969C259.547 114.05 259.797 114.175 259.961 114.342C260.126 114.508 260.208 114.722 260.208 114.984C260.208 115.199 260.146 115.391 260.022 115.561C259.9 115.73 259.729 115.863 259.51 115.961C259.29 116.059 259.034 116.107 258.743 116.107C258.361 116.107 258.044 116.024 257.793 115.858C257.543 115.692 257.384 115.45 257.317 115.131L257.864 114.994C257.916 115.196 258.015 115.347 258.159 115.448C258.306 115.549 258.497 115.6 258.733 115.6C259.002 115.6 259.215 115.543 259.373 115.429C259.532 115.313 259.612 115.175 259.612 115.014C259.612 114.883 259.567 114.774 259.475 114.687C259.384 114.597 259.244 114.53 259.056 114.486L258.43 114.34C258.087 114.258 257.835 114.132 257.674 113.961C257.514 113.789 257.434 113.573 257.434 113.314C257.434 113.103 257.494 112.916 257.613 112.753C257.733 112.59 257.897 112.462 258.103 112.37C258.312 112.277 258.548 112.23 258.811 112.23C259.182 112.23 259.474 112.312 259.685 112.475C259.899 112.637 260.05 112.852 260.14 113.119ZM263.731 113.119L263.214 113.266C263.181 113.179 263.133 113.096 263.07 113.014C263.008 112.931 262.923 112.863 262.816 112.809C262.709 112.755 262.571 112.728 262.403 112.728C262.174 112.728 261.983 112.781 261.83 112.887C261.678 112.991 261.603 113.124 261.603 113.285C261.603 113.428 261.655 113.541 261.759 113.624C261.863 113.707 262.026 113.777 262.247 113.832L262.804 113.969C263.139 114.05 263.389 114.175 263.553 114.342C263.718 114.508 263.8 114.722 263.8 114.984C263.8 115.199 263.738 115.391 263.614 115.561C263.492 115.73 263.321 115.863 263.102 115.961C262.882 116.059 262.626 116.107 262.335 116.107C261.952 116.107 261.636 116.024 261.385 115.858C261.135 115.692 260.976 115.45 260.909 115.131L261.456 114.994C261.508 115.196 261.607 115.347 261.751 115.448C261.898 115.549 262.089 115.6 262.325 115.6C262.594 115.6 262.807 115.543 262.965 115.429C263.124 115.313 263.204 115.175 263.204 115.014C263.204 114.883 263.159 114.774 263.067 114.687C262.976 114.597 262.836 114.53 262.647 114.486L262.022 114.34C261.679 114.258 261.427 114.132 261.266 113.961C261.106 113.789 261.026 113.573 261.026 113.314C261.026 113.103 261.086 112.916 261.205 112.753C261.325 112.59 261.489 112.462 261.695 112.37C261.904 112.277 262.14 112.23 262.403 112.23C262.774 112.23 263.066 112.312 263.277 112.475C263.491 112.637 263.642 112.852 263.731 113.119ZM265.429 111.029L265.38 114.623H264.814L264.765 111.029H265.429ZM265.097 116.068C264.976 116.068 264.873 116.025 264.787 115.939C264.701 115.853 264.657 115.749 264.657 115.629C264.657 115.508 264.701 115.405 264.787 115.319C264.873 115.233 264.976 115.189 265.097 115.189C265.217 115.189 265.321 115.233 265.407 115.319C265.493 115.405 265.536 115.508 265.536 115.629C265.536 115.709 265.516 115.782 265.475 115.849C265.436 115.915 265.383 115.969 265.317 116.01C265.251 116.049 265.178 116.068 265.097 116.068Z" fill="black"/>
<rect x="253.766" y="133.952" width="54.1412" height="11.4585" rx="5.72923" fill="black"/>
<path d="M267.619 138.556C267.595 138.349 267.496 138.189 267.322 138.075C267.149 137.962 266.936 137.905 266.683 137.905C266.499 137.905 266.337 137.934 266.199 137.994C266.062 138.054 265.955 138.136 265.878 138.24C265.802 138.345 265.764 138.463 265.764 138.596C265.764 138.708 265.79 138.803 265.843 138.883C265.897 138.962 265.966 139.028 266.051 139.081C266.135 139.132 266.223 139.175 266.315 139.209C266.407 139.241 266.492 139.268 266.569 139.288L266.993 139.402C267.101 139.43 267.222 139.47 267.355 139.52C267.489 139.57 267.617 139.639 267.739 139.725C267.863 139.811 267.964 139.921 268.044 140.055C268.124 140.189 268.164 140.354 268.164 140.549C268.164 140.775 268.105 140.978 267.987 141.16C267.871 141.342 267.7 141.486 267.475 141.593C267.251 141.7 266.979 141.754 266.659 141.754C266.36 141.754 266.102 141.706 265.884 141.609C265.667 141.513 265.496 141.379 265.371 141.207C265.248 141.034 265.178 140.834 265.161 140.606H265.682C265.696 140.764 265.749 140.894 265.841 140.997C265.935 141.099 266.053 141.175 266.195 141.225C266.339 141.274 266.493 141.298 266.659 141.298C266.851 141.298 267.024 141.267 267.178 141.205C267.331 141.141 267.452 141.053 267.542 140.94C267.631 140.826 267.676 140.693 267.676 140.541C267.676 140.403 267.637 140.29 267.56 140.204C267.483 140.117 267.381 140.046 267.255 139.992C267.129 139.938 266.993 139.89 266.846 139.85L266.333 139.703C266.008 139.61 265.75 139.476 265.56 139.302C265.37 139.129 265.275 138.901 265.275 138.621C265.275 138.387 265.338 138.184 265.465 138.01C265.592 137.835 265.763 137.7 265.977 137.603C266.193 137.506 266.434 137.457 266.7 137.457C266.968 137.457 267.207 137.505 267.416 137.601C267.625 137.696 267.79 137.827 267.912 137.992C268.036 138.158 268.101 138.345 268.107 138.556H267.619ZM269.409 139.801V141.681H268.929V137.514H269.409V139.044H269.45C269.523 138.883 269.633 138.754 269.779 138.659C269.927 138.563 270.124 138.515 270.369 138.515C270.582 138.515 270.769 138.558 270.929 138.643C271.089 138.727 271.213 138.857 271.301 139.032C271.391 139.205 271.435 139.426 271.435 139.695V141.681H270.955V139.728C270.955 139.479 270.891 139.287 270.762 139.152C270.635 139.015 270.458 138.946 270.231 138.946C270.074 138.946 269.933 138.979 269.808 139.046C269.684 139.112 269.587 139.209 269.515 139.337C269.444 139.464 269.409 139.619 269.409 139.801ZM273.233 141.754C273.035 141.754 272.856 141.717 272.694 141.642C272.533 141.566 272.405 141.457 272.31 141.314C272.215 141.171 272.167 140.997 272.167 140.794C272.167 140.615 272.203 140.469 272.273 140.358C272.344 140.246 272.438 140.157 272.556 140.094C272.674 140.03 272.804 139.983 272.947 139.951C273.09 139.919 273.235 139.893 273.38 139.874C273.57 139.85 273.724 139.831 273.842 139.819C273.961 139.806 274.048 139.783 274.102 139.752C274.158 139.721 274.186 139.666 274.186 139.589V139.573C274.186 139.372 274.131 139.216 274.021 139.105C273.912 138.994 273.748 138.938 273.526 138.938C273.297 138.938 273.117 138.988 272.987 139.089C272.857 139.189 272.766 139.296 272.713 139.41L272.257 139.247C272.338 139.057 272.447 138.91 272.582 138.804C272.719 138.697 272.869 138.622 273.03 138.58C273.193 138.537 273.353 138.515 273.51 138.515C273.611 138.515 273.726 138.527 273.856 138.552C273.988 138.575 274.114 138.623 274.236 138.696C274.36 138.769 274.462 138.88 274.544 139.028C274.625 139.175 274.666 139.374 274.666 139.622V141.681H274.186V141.257H274.161C274.129 141.325 274.074 141.398 273.998 141.475C273.922 141.552 273.821 141.618 273.695 141.673C273.569 141.727 273.415 141.754 273.233 141.754ZM273.307 141.323C273.497 141.323 273.657 141.285 273.787 141.211C273.918 141.136 274.017 141.04 274.084 140.922C274.152 140.804 274.186 140.68 274.186 140.549V140.11C274.165 140.134 274.121 140.157 274.051 140.177C273.984 140.196 273.905 140.213 273.815 140.228C273.727 140.242 273.641 140.254 273.557 140.265C273.474 140.274 273.407 140.282 273.356 140.289C273.231 140.305 273.114 140.332 273.006 140.368C272.898 140.404 272.812 140.457 272.745 140.529C272.68 140.6 272.648 140.696 272.648 140.818C272.648 140.985 272.709 141.111 272.833 141.196C272.957 141.281 273.115 141.323 273.307 141.323ZM275.542 141.681V138.556H276.006V139.028H276.039C276.096 138.873 276.199 138.748 276.348 138.651C276.497 138.555 276.665 138.507 276.852 138.507C276.888 138.507 276.932 138.507 276.985 138.509C277.038 138.51 277.078 138.512 277.105 138.515V139.003C277.088 138.999 277.051 138.993 276.993 138.985C276.936 138.975 276.875 138.971 276.812 138.971C276.66 138.971 276.524 139.003 276.405 139.066C276.287 139.129 276.193 139.215 276.124 139.327C276.056 139.437 276.022 139.562 276.022 139.703V141.681H275.542ZM278.889 141.746C278.588 141.746 278.328 141.679 278.11 141.546C277.893 141.412 277.725 141.225 277.607 140.985C277.491 140.743 277.432 140.463 277.432 140.143C277.432 139.822 277.491 139.54 277.607 139.296C277.725 139.051 277.889 138.859 278.1 138.722C278.311 138.584 278.558 138.515 278.84 138.515C279.003 138.515 279.164 138.542 279.322 138.596C279.481 138.651 279.625 138.739 279.756 138.861C279.886 138.982 279.99 139.142 280.067 139.341C280.144 139.54 280.183 139.786 280.183 140.077V140.281H277.774V139.866H279.695C279.695 139.69 279.659 139.532 279.589 139.394C279.52 139.256 279.421 139.146 279.292 139.066C279.164 138.986 279.014 138.946 278.84 138.946C278.649 138.946 278.483 138.994 278.344 139.089C278.205 139.182 278.099 139.304 278.024 139.455C277.95 139.605 277.912 139.767 277.912 139.939V140.216C277.912 140.452 277.953 140.652 278.034 140.816C278.117 140.979 278.232 141.103 278.378 141.188C278.525 141.272 278.695 141.314 278.889 141.314C279.015 141.314 279.129 141.297 279.231 141.262C279.334 141.225 279.423 141.171 279.497 141.099C279.572 141.026 279.629 140.935 279.67 140.826L280.134 140.956C280.085 141.114 280.003 141.252 279.888 141.371C279.773 141.489 279.63 141.582 279.461 141.648C279.291 141.713 279.101 141.746 278.889 141.746ZM282.525 141.681V138.556H282.989V139.044H283.029C283.094 138.877 283.199 138.748 283.345 138.655C283.49 138.562 283.664 138.515 283.867 138.515C284.074 138.515 284.245 138.562 284.382 138.655C284.521 138.748 284.628 138.877 284.706 139.044H284.738C284.818 138.883 284.938 138.754 285.098 138.659C285.258 138.563 285.45 138.515 285.674 138.515C285.953 138.515 286.182 138.602 286.36 138.777C286.537 138.951 286.626 139.222 286.626 139.589V141.681H286.146V139.589C286.146 139.359 286.083 139.194 285.957 139.095C285.831 138.996 285.682 138.946 285.511 138.946C285.292 138.946 285.121 139.013 285.001 139.146C284.88 139.277 284.82 139.444 284.82 139.646V141.681H284.331V139.54C284.331 139.363 284.274 139.22 284.158 139.111C284.043 139.001 283.895 138.946 283.713 138.946C283.588 138.946 283.471 138.979 283.363 139.046C283.256 139.112 283.169 139.205 283.102 139.323C283.037 139.439 283.005 139.574 283.005 139.728V141.681H282.525ZM288.774 141.746C288.492 141.746 288.244 141.679 288.031 141.544C287.819 141.41 287.654 141.222 287.535 140.981C287.417 140.739 287.358 140.457 287.358 140.134C287.358 139.809 287.417 139.525 287.535 139.282C287.654 139.039 287.819 138.851 288.031 138.716C288.244 138.582 288.492 138.515 288.774 138.515C289.056 138.515 289.303 138.582 289.514 138.716C289.727 138.851 289.893 139.039 290.011 139.282C290.13 139.525 290.19 139.809 290.19 140.134C290.19 140.457 290.13 140.739 290.011 140.981C289.893 141.222 289.727 141.41 289.514 141.544C289.303 141.679 289.056 141.746 288.774 141.746ZM288.774 141.314C288.988 141.314 289.164 141.26 289.303 141.15C289.441 141.04 289.543 140.895 289.61 140.716C289.676 140.537 289.71 140.343 289.71 140.134C289.71 139.926 289.676 139.731 289.61 139.551C289.543 139.37 289.441 139.224 289.303 139.113C289.164 139.002 288.988 138.946 288.774 138.946C288.559 138.946 288.383 139.002 288.245 139.113C288.106 139.224 288.004 139.37 287.937 139.551C287.871 139.731 287.838 139.926 287.838 140.134C287.838 140.343 287.871 140.537 287.937 140.716C288.004 140.895 288.106 141.04 288.245 141.15C288.383 141.26 288.559 141.314 288.774 141.314ZM290.923 141.681V138.556H291.387V139.028H291.419C291.476 138.873 291.579 138.748 291.728 138.651C291.878 138.555 292.046 138.507 292.233 138.507C292.268 138.507 292.312 138.507 292.365 138.509C292.418 138.51 292.458 138.512 292.485 138.515V139.003C292.469 138.999 292.432 138.993 292.373 138.985C292.316 138.975 292.256 138.971 292.192 138.971C292.04 138.971 291.905 139.003 291.785 139.066C291.667 139.129 291.574 139.215 291.505 139.327C291.437 139.437 291.403 139.562 291.403 139.703V141.681H290.923ZM294.269 141.746C293.968 141.746 293.709 141.679 293.49 141.546C293.273 141.412 293.106 141.225 292.988 140.985C292.871 140.743 292.813 140.463 292.813 140.143C292.813 139.822 292.871 139.54 292.988 139.296C293.106 139.051 293.27 138.859 293.48 138.722C293.692 138.584 293.939 138.515 294.221 138.515C294.383 138.515 294.544 138.542 294.703 138.596C294.861 138.651 295.006 138.739 295.136 138.861C295.266 138.982 295.37 139.142 295.447 139.341C295.525 139.54 295.563 139.786 295.563 140.077V140.281H293.155V139.866H295.075C295.075 139.69 295.04 139.532 294.969 139.394C294.9 139.256 294.801 139.146 294.672 139.066C294.545 138.986 294.394 138.946 294.221 138.946C294.029 138.946 293.864 138.994 293.724 139.089C293.586 139.182 293.479 139.304 293.405 139.455C293.33 139.605 293.293 139.767 293.293 139.939V140.216C293.293 140.452 293.334 140.652 293.415 140.816C293.498 140.979 293.612 141.103 293.759 141.188C293.905 141.272 294.075 141.314 294.269 141.314C294.396 141.314 294.51 141.297 294.611 141.262C294.714 141.225 294.803 141.171 294.878 141.099C294.952 141.026 295.01 140.935 295.051 140.826L295.515 140.956C295.466 141.114 295.384 141.252 295.268 141.371C295.153 141.489 295.011 141.582 294.841 141.648C294.672 141.713 294.481 141.746 294.269 141.746Z" fill="white"/>
<path d="M212.044 141.681H210.758V137.514H212.101C212.505 137.514 212.851 137.597 213.139 137.764C213.426 137.93 213.647 138.168 213.8 138.478C213.953 138.788 214.03 139.158 214.03 139.589C214.03 140.023 213.953 140.397 213.798 140.71C213.643 141.022 213.418 141.262 213.123 141.43C212.827 141.597 212.467 141.681 212.044 141.681ZM211.263 141.233H212.012C212.356 141.233 212.642 141.167 212.868 141.034C213.095 140.901 213.264 140.712 213.375 140.466C213.486 140.221 213.542 139.928 213.542 139.589C213.542 139.253 213.487 138.963 213.377 138.72C213.267 138.476 213.103 138.289 212.885 138.159C212.666 138.027 212.394 137.962 212.069 137.962H211.263V141.233ZM214.811 141.681V138.556H215.291V141.681H214.811ZM215.055 138.035C214.962 138.035 214.881 138.003 214.813 137.939C214.747 137.875 214.714 137.799 214.714 137.709C214.714 137.62 214.747 137.543 214.813 137.479C214.881 137.416 214.962 137.384 215.055 137.384C215.149 137.384 215.229 137.416 215.295 137.479C215.363 137.543 215.397 137.62 215.397 137.709C215.397 137.799 215.363 137.875 215.295 137.939C215.229 138.003 215.149 138.035 215.055 138.035ZM218.384 139.256L217.953 139.378C217.926 139.306 217.886 139.236 217.833 139.168C217.781 139.099 217.711 139.042 217.621 138.997C217.532 138.952 217.417 138.93 217.278 138.93C217.086 138.93 216.927 138.974 216.799 139.062C216.673 139.149 216.61 139.26 216.61 139.394C216.61 139.513 216.654 139.607 216.74 139.677C216.827 139.746 216.963 139.803 217.147 139.85L217.611 139.964C217.891 140.031 218.099 140.135 218.236 140.275C218.373 140.413 218.441 140.592 218.441 140.81C218.441 140.989 218.39 141.149 218.287 141.29C218.185 141.431 218.043 141.542 217.859 141.624C217.676 141.705 217.463 141.746 217.221 141.746C216.902 141.746 216.638 141.677 216.429 141.538C216.22 141.4 216.088 141.198 216.032 140.932L216.488 140.818C216.532 140.986 216.614 141.112 216.734 141.196C216.856 141.281 217.016 141.323 217.213 141.323C217.436 141.323 217.614 141.275 217.746 141.18C217.878 141.084 217.945 140.969 217.945 140.834C217.945 140.726 217.907 140.635 217.831 140.562C217.755 140.487 217.638 140.431 217.481 140.395L216.96 140.273C216.674 140.205 216.464 140.1 216.33 139.957C216.197 139.814 216.13 139.634 216.13 139.418C216.13 139.242 216.18 139.086 216.279 138.95C216.379 138.815 216.515 138.708 216.688 138.631C216.861 138.554 217.058 138.515 217.278 138.515C217.587 138.515 217.83 138.583 218.006 138.718C218.184 138.854 218.31 139.033 218.384 139.256ZM220.434 141.746C220.141 141.746 219.888 141.677 219.677 141.538C219.465 141.4 219.302 141.209 219.189 140.967C219.075 140.724 219.018 140.446 219.018 140.134C219.018 139.817 219.076 139.537 219.193 139.294C219.311 139.05 219.475 138.859 219.685 138.722C219.897 138.584 220.143 138.515 220.426 138.515C220.645 138.515 220.843 138.556 221.02 138.637C221.196 138.718 221.34 138.832 221.453 138.979C221.566 139.125 221.635 139.296 221.663 139.492H221.182C221.146 139.349 221.064 139.223 220.938 139.113C220.813 139.002 220.645 138.946 220.434 138.946C220.246 138.946 220.082 138.995 219.941 139.093C219.802 139.189 219.692 139.325 219.614 139.502C219.536 139.677 219.498 139.882 219.498 140.118C219.498 140.36 219.536 140.57 219.612 140.749C219.689 140.928 219.798 141.067 219.937 141.166C220.078 141.265 220.244 141.314 220.434 141.314C220.558 141.314 220.672 141.293 220.773 141.249C220.875 141.206 220.961 141.144 221.032 141.062C221.102 140.981 221.153 140.883 221.182 140.769H221.663C221.635 140.954 221.568 141.12 221.461 141.268C221.355 141.414 221.215 141.531 221.04 141.618C220.866 141.703 220.664 141.746 220.434 141.746ZM223.634 141.746C223.352 141.746 223.104 141.679 222.891 141.544C222.68 141.41 222.514 141.222 222.395 140.981C222.277 140.739 222.218 140.457 222.218 140.134C222.218 139.809 222.277 139.525 222.395 139.282C222.514 139.039 222.68 138.851 222.891 138.716C223.104 138.582 223.352 138.515 223.634 138.515C223.916 138.515 224.163 138.582 224.375 138.716C224.587 138.851 224.753 139.039 224.871 139.282C224.99 139.525 225.05 139.809 225.05 140.134C225.05 140.457 224.99 140.739 224.871 140.981C224.753 141.222 224.587 141.41 224.375 141.544C224.163 141.679 223.916 141.746 223.634 141.746ZM223.634 141.314C223.848 141.314 224.025 141.26 224.163 141.15C224.301 141.04 224.404 140.895 224.47 140.716C224.537 140.537 224.57 140.343 224.57 140.134C224.57 139.926 224.537 139.731 224.47 139.551C224.404 139.37 224.301 139.224 224.163 139.113C224.025 139.002 223.848 138.946 223.634 138.946C223.42 138.946 223.243 139.002 223.105 139.113C222.967 139.224 222.864 139.37 222.798 139.551C222.731 139.731 222.698 139.926 222.698 140.134C222.698 140.343 222.731 140.537 222.798 140.716C222.864 140.895 222.967 141.04 223.105 141.15C223.243 141.26 223.42 141.314 223.634 141.314ZM228.226 138.556L227.071 141.681H226.583L225.427 138.556H225.948L226.81 141.046H226.843L227.706 138.556H228.226ZM230.059 141.746C229.757 141.746 229.498 141.679 229.279 141.546C229.062 141.412 228.895 141.225 228.777 140.985C228.66 140.743 228.602 140.463 228.602 140.143C228.602 139.822 228.66 139.54 228.777 139.296C228.895 139.051 229.059 138.859 229.269 138.722C229.481 138.584 229.728 138.515 230.01 138.515C230.172 138.515 230.333 138.542 230.492 138.596C230.651 138.651 230.795 138.739 230.925 138.861C231.055 138.982 231.159 139.142 231.237 139.341C231.314 139.54 231.352 139.786 231.352 140.077V140.281H228.944V139.866H230.864C230.864 139.69 230.829 139.532 230.758 139.394C230.689 139.256 230.59 139.146 230.461 139.066C230.334 138.986 230.183 138.946 230.01 138.946C229.818 138.946 229.653 138.994 229.513 139.089C229.375 139.182 229.268 139.304 229.194 139.455C229.119 139.605 229.082 139.767 229.082 139.939V140.216C229.082 140.452 229.123 140.652 229.204 140.816C229.287 140.979 229.401 141.103 229.548 141.188C229.694 141.272 229.865 141.314 230.059 141.314C230.185 141.314 230.299 141.297 230.4 141.262C230.503 141.225 230.592 141.171 230.667 141.099C230.741 141.026 230.799 140.935 230.84 140.826L231.304 140.956C231.255 141.114 231.173 141.252 231.057 141.371C230.942 141.489 230.8 141.582 230.63 141.648C230.461 141.713 230.27 141.746 230.059 141.746ZM232.083 141.681V138.556H232.547V139.028H232.579C232.636 138.873 232.739 138.748 232.889 138.651C233.038 138.555 233.206 138.507 233.393 138.507C233.428 138.507 233.472 138.507 233.525 138.509C233.578 138.51 233.618 138.512 233.645 138.515V139.003C233.629 138.999 233.592 138.993 233.533 138.985C233.477 138.975 233.416 138.971 233.352 138.971C233.2 138.971 233.065 139.003 232.946 139.066C232.828 139.129 232.734 139.215 232.665 139.327C232.597 139.437 232.563 139.562 232.563 139.703V141.681H232.083Z" fill="black"/>
<rect x="195.184" y="134.095" width="54.1412" height="11.172" rx="5.586" stroke="black" stroke-width="0.286462"/>
<defs>
<filter id="filter0_f_454_3780" x="4.37777" y="268.397" width="495.688" height="48.9198" filterUnits="userSpaceOnUse" color-interpolation-filters="sRGB">
<feFlood flood-opacity="0" result="BackgroundImageFix"/>
<feBlend mode="normal" in="SourceGraphic" in2="BackgroundImageFix" result="shape"/>
<feGaussianBlur stdDeviation="10.982" result="effect1_foregroundBlur_454_3780"/>
</filter>
<linearGradient id="paint0_linear_454_3780" x1="0.384766" y1="279.378" x2="503.561" y2="279.378" gradientUnits="userSpaceOnUse">
<stop stop-color="#0D1012"/>
<stop offset="0.0295345" stop-color="#CAD4DB"/>
<stop offset="0.0625" stop-color="#242729"/>
<stop offset="0.133609" stop-color="#A3ACB1"/>
<stop offset="0.865967" stop-color="#A3ACB1"/>
<stop offset="0.941937" stop-color="#242729"/>
<stop offset="0.971275" stop-color="#CAD4DB"/>
<stop offset="0.996436" stop-color="#0D1012"/>
</linearGradient>
<linearGradient id="paint1_linear_454_3780" x1="251.973" y1="283.871" x2="251.973" y2="289.861" gradientUnits="userSpaceOnUse">
<stop stop-color="#7A7F83"/>
<stop offset="1" stop-color="#0B0B0E"/>
</linearGradient>
<linearGradient id="paint2_linear_454_3780" x1="218.777" y1="279.128" x2="287.165" y2="279.128" gradientUnits="userSpaceOnUse">
<stop stop-color="#3C3C3C"/>
<stop offset="0.317518" stop-color="#3C3C3C" stop-opacity="0"/>
<stop offset="0.660584" stop-color="#3C3C3C" stop-opacity="0"/>
<stop offset="1" stop-color="#444444"/>
</linearGradient>
</defs>
</svg>
