<svg width="245" height="178" viewBox="0 0 245 178" fill="none" xmlns="http://www.w3.org/2000/svg">
<path d="M34.3343 91.3248C22.2906 91.3248 16.9914 89.0365 12.6557 89.0365C9.76527 89.0365 8.92221 91.927 8.19959 94.4561C8.07916 94.9379 5.67043 94.9379 5.54999 94.4561L1.21428 59.7705C0.973412 59.0479 3.62301 58.6865 3.98432 59.2887C9.64483 80.3651 19.0389 86.8687 33.2504 86.8687C46.0166 86.8687 56.1333 82.0512 56.1333 71.8141C56.1333 59.8909 49.0275 57.8435 25.7833 50.0151C9.52439 44.5955 0.250793 39.0554 0.250793 25.3257C0.250793 13.7638 10.6083 4.36974 26.3855 4.36974C35.9 4.36974 42.2831 6.65803 45.7757 6.65803C49.148 6.65803 49.6297 3.16538 50.2319 1.23839C50.3523 0.87709 52.7611 0.997525 52.8815 1.23839L56.9763 34.1175C56.9763 34.7197 54.3267 35.081 54.2063 34.5993C48.9071 13.7638 40.2357 8.82589 25.3016 8.82589C15.6666 8.82589 8.32003 14.7273 8.32003 22.1943C8.32003 30.2636 10.247 34.7197 31.6847 41.2233C47.1005 45.7999 64.4434 51.4604 64.4434 66.9967C64.4434 80.3651 52.8815 91.3248 34.3343 91.3248ZM102.243 90.7841C98.0084 90.7841 94.4277 89.9085 91.5005 88.1574C88.5993 86.3801 86.4039 83.858 84.9141 80.5909C83.4505 77.2977 82.7187 73.4034 82.7187 68.908C82.7187 64.2295 83.5681 60.2307 85.2669 56.9114C86.9658 53.5659 89.3573 51.0045 92.4414 49.2273C95.5255 47.45 99.1454 46.5614 103.301 46.5614C105.34 46.5614 107.235 46.7443 108.986 47.1102C110.737 47.4761 112.318 47.9858 113.729 48.6392L112.671 52.1284C111.207 51.475 109.652 50.9784 108.006 50.6386C106.359 50.2989 104.778 50.129 103.262 50.129C99.7596 50.129 96.78 50.9 94.3232 52.442C91.8925 53.958 90.0238 56.1273 88.7169 58.95C87.4363 61.7466 86.7959 65.0528 86.7959 68.8688C86.7959 72.4494 87.3448 75.625 88.4425 78.3955C89.5402 81.1398 91.226 83.3091 93.4999 84.9034C95.7738 86.4716 98.688 87.2557 102.243 87.2557C104.307 87.2557 106.268 87.0466 108.123 86.6284C110.005 86.2102 111.717 85.6744 113.259 85.021V88.6278C111.874 89.2551 110.266 89.7648 108.437 90.1568C106.633 90.575 104.569 90.7841 102.243 90.7841ZM121.252 28.9977V48.9136C121.252 50.0636 121.226 51.1352 121.174 52.1284C121.148 53.1216 121.095 54.1278 121.017 55.1472H121.292C121.997 53.5267 123.003 52.0761 124.31 50.7955C125.643 49.5148 127.277 48.4955 129.211 47.7375C131.171 46.9795 133.432 46.6006 135.993 46.6006C139.234 46.6006 141.952 47.1625 144.148 48.2864C146.369 49.3841 148.055 51.0699 149.205 53.3438C150.355 55.6176 150.93 58.5449 150.93 62.1256V90H147.01V62.3608C147.01 58.1267 146.043 55.0165 144.109 53.0301C142.174 51.0438 139.365 50.0506 135.68 50.0506C132.543 50.0506 129.903 50.6648 127.76 51.8932C125.617 53.0955 123.997 54.925 122.899 57.3818C121.801 59.8125 121.252 62.8574 121.252 66.5165V90H117.293V28.9977H121.252ZM194.051 68.6335C194.051 71.9267 193.646 74.9324 192.835 77.6506C192.025 80.3426 190.823 82.6688 189.229 84.629C187.634 86.5892 185.648 88.1051 183.27 89.1767C180.917 90.2483 178.173 90.7841 175.037 90.7841C172.057 90.7841 169.404 90.2614 167.078 89.2159C164.752 88.1443 162.779 86.6284 161.158 84.6682C159.564 82.708 158.348 80.3818 157.512 77.6898C156.676 74.9716 156.258 71.9528 156.258 68.6335C156.258 64.0597 157.016 60.1261 158.531 56.833C160.073 53.5136 162.269 50.9784 165.118 49.2273C167.993 47.45 171.43 46.5614 175.429 46.5614C179.558 46.5614 182.995 47.5023 185.739 49.3841C188.51 51.2398 190.588 53.8273 191.973 57.1466C193.358 60.4659 194.051 64.2949 194.051 68.6335ZM160.335 68.6335C160.335 72.371 160.871 75.6381 161.942 78.4347C163.014 81.2313 164.634 83.4136 166.804 84.9818C168.999 86.55 171.77 87.3341 175.115 87.3341C178.539 87.3341 181.348 86.55 183.544 84.9818C185.739 83.4136 187.36 81.2182 188.405 78.3955C189.451 75.5727 189.973 72.3188 189.973 68.6335C189.973 65.0528 189.477 61.8642 188.484 59.0676C187.491 56.271 185.922 54.0756 183.779 52.4813C181.636 50.8608 178.839 50.0506 175.389 50.0506C170.45 50.0506 166.699 51.6972 164.138 54.9903C161.602 58.2835 160.335 62.8313 160.335 68.6335ZM235.133 68.6335C235.133 71.9267 234.728 74.9324 233.917 77.6506C233.107 80.3426 231.905 82.6688 230.311 84.629C228.716 86.5892 226.73 88.1051 224.351 89.1767C221.999 90.2483 219.255 90.7841 216.119 90.7841C213.139 90.7841 210.486 90.2614 208.16 89.2159C205.834 88.1443 203.861 86.6284 202.24 84.6682C200.646 82.708 199.43 80.3818 198.594 77.6898C197.758 74.9716 197.34 71.9528 197.34 68.6335C197.34 64.0597 198.098 60.1261 199.613 56.833C201.155 53.5136 203.351 50.9784 206.2 49.2273C209.075 47.45 212.512 46.5614 216.511 46.5614C220.64 46.5614 224.077 47.5023 226.821 49.3841C229.592 51.2398 231.67 53.8273 233.055 57.1466C234.44 60.4659 235.133 64.2949 235.133 68.6335ZM201.417 68.6335C201.417 72.371 201.953 75.6381 203.024 78.4347C204.096 81.2313 205.716 83.4136 207.886 84.9818C210.081 86.55 212.851 87.3341 216.197 87.3341C219.621 87.3341 222.43 86.55 224.626 84.9818C226.821 83.4136 228.442 81.2182 229.487 78.3955C230.533 75.5727 231.055 72.3188 231.055 68.6335C231.055 65.0528 230.559 61.8642 229.566 59.0676C228.573 56.271 227.004 54.0756 224.861 52.4813C222.718 50.8608 219.921 50.0506 216.471 50.0506C211.532 50.0506 207.781 51.6972 205.22 54.9903C202.684 58.2835 201.417 62.8313 201.417 68.6335ZM244.89 90H240.891V28.9977H244.89V90ZM51.6279 159.325C39.5842 159.325 34.285 157.037 29.9493 157.037C27.0589 157.037 26.2158 159.927 25.4932 162.456C25.3727 162.938 22.964 162.938 22.8436 162.456L18.5079 127.77C18.267 127.048 20.9166 126.687 21.2779 127.289C26.9384 148.365 36.3325 154.869 50.5439 154.869C63.3102 154.869 73.4269 150.051 73.4269 139.814C73.4269 127.891 66.3211 125.843 43.0769 118.015C26.818 112.595 17.5444 107.055 17.5444 93.3257C17.5444 81.7638 27.9019 72.3697 43.6791 72.3697C53.1935 72.3697 59.5767 74.658 63.0693 74.658C66.4415 74.658 66.9233 71.1654 67.5255 69.2384C67.6459 68.8771 70.0546 68.9975 70.1751 69.2384L74.2699 102.118C74.2699 102.72 71.6203 103.081 71.4999 102.599C66.2007 81.7638 57.5293 76.8259 42.5951 76.8259C32.9602 76.8259 25.6136 82.7273 25.6136 90.1943C25.6136 98.2636 27.5406 102.72 48.9783 109.223C64.3941 113.8 81.737 119.46 81.737 134.997C81.737 148.365 70.1751 159.325 51.6279 159.325ZM102.605 114.64C107.283 114.64 110.785 115.816 113.112 118.168C115.438 120.52 116.601 124.271 116.601 129.42V158H113.543L112.837 150.551H112.602C111.687 152.145 110.576 153.57 109.27 154.824C107.963 156.053 106.355 157.02 104.447 157.726C102.566 158.431 100.266 158.784 97.5474 158.784C94.803 158.784 92.4508 158.327 90.4905 157.412C88.5565 156.497 87.0536 155.164 85.982 153.413C84.9366 151.662 84.4138 149.532 84.4138 147.023C84.4138 142.789 86.165 139.574 89.6673 137.378C93.1695 135.157 98.2008 133.902 104.761 133.615L112.68 133.223V130.126C112.68 125.761 111.818 122.651 110.093 120.795C108.368 118.939 105.82 118.011 102.448 118.011C100.252 118.011 98.1354 118.299 96.0968 118.874C94.0843 119.423 92.0326 120.22 89.9417 121.265L88.6871 117.972C90.7258 117.005 92.9082 116.208 95.2343 115.581C97.5866 114.953 100.043 114.64 102.605 114.64ZM112.641 136.32L105.192 136.634C99.782 136.895 95.6655 137.862 92.8428 139.535C90.0201 141.207 88.6087 143.716 88.6087 147.062C88.6087 149.754 89.4451 151.819 91.1178 153.256C92.8167 154.694 95.169 155.413 98.1746 155.413C102.853 155.413 106.421 154.08 108.877 151.414C111.36 148.748 112.615 145.115 112.641 140.515V136.32ZM139.826 158L123.477 115.385H127.672L138.61 144.435C139.29 146.186 139.891 147.872 140.414 149.493C140.962 151.087 141.42 152.538 141.786 153.844H141.982C142.4 152.538 142.87 151.074 143.393 149.453C143.942 147.833 144.543 146.16 145.197 144.435L156.135 115.385H160.369L143.981 158H139.826ZM177.007 158L160.659 115.385H164.854L175.792 144.435C176.471 146.186 177.072 147.872 177.595 149.493C178.144 151.087 178.601 152.538 178.967 153.844H179.163C179.582 152.538 180.052 151.074 180.575 149.453C181.124 147.833 181.725 146.16 182.378 144.435L193.316 115.385H197.55L181.163 158H177.007ZM197.88 115.385H202.075L212.425 142.436C213.052 144.03 213.601 145.507 214.071 146.866C214.568 148.199 214.999 149.427 215.365 150.551C215.731 151.649 216.031 152.655 216.267 153.57H216.502C216.894 152.368 217.417 150.826 218.07 148.944C218.723 147.036 219.468 144.919 220.305 142.593L230.537 115.385H234.771L215.326 165.998C214.385 168.455 213.352 170.532 212.229 172.231C211.105 173.956 209.785 175.25 208.269 176.112C206.753 177.001 204.923 177.445 202.78 177.445C201.813 177.445 200.938 177.367 200.154 177.21C199.369 177.08 198.611 176.897 197.88 176.661V173.251C198.559 173.46 199.252 173.63 199.957 173.76C200.689 173.917 201.486 173.995 202.349 173.995C203.839 173.995 205.119 173.682 206.191 173.055C207.289 172.453 208.269 171.512 209.131 170.232C209.994 168.951 210.804 167.318 211.562 165.331L214.463 157.765L197.88 115.385Z" fill="black"/>
</svg>
