<svg width="87" height="168" viewBox="0 0 87 168" fill="none" xmlns="http://www.w3.org/2000/svg">
<path d="M55.1 118.543H55.3522L52.9565 128H9.07826V36.2087H21.9391V125.73H24.3348C34.0015 125.73 44.2565 123.335 55.1 118.543Z" fill="black"/>
<path d="M67.3304 157L55.2261 126.865H19.4174C14.7942 139.306 12.3145 149.351 11.9782 157H3.27824C7.73332 147.838 13.1971 135.229 19.6695 119.174L20.6782 116.778L42.6174 63.1913H43.1217L81.3261 157H67.3304ZM20.3 124.596H54.3435L37.3217 82.4826L23.0739 117.661L20.3 124.596Z" fill="black"/>
<path d="M67.3304 157L66.1604 157.47L66.4781 158.261H67.3304V157ZM55.2261 126.865L56.3961 126.395L56.0784 125.604H55.2261V126.865ZM19.4174 126.865V125.604H18.5408L18.2355 126.426L19.4174 126.865ZM11.9782 157V158.261H13.1849L13.2379 157.055L11.9782 157ZM3.27824 157L2.14432 156.449L1.26314 158.261H3.27824V157ZM19.6695 119.174L18.5075 118.685L18.5037 118.694L18.5001 118.702L19.6695 119.174ZM20.6782 116.778L21.8404 117.268L21.8451 117.256L20.6782 116.778ZM42.6174 63.1913V61.9304H41.7711L41.4505 62.7136L42.6174 63.1913ZM43.1217 63.1913L44.2895 62.7157L43.9696 61.9304H43.1217V63.1913ZM81.3261 157V158.261H83.201L82.4938 156.524L81.3261 157ZM20.3 124.596L19.1293 124.127L18.4376 125.857H20.3V124.596ZM54.3435 124.596V125.857H56.2131L55.5125 124.123L54.3435 124.596ZM37.3217 82.4826L38.4907 82.0101L37.3229 79.1209L36.1531 82.0093L37.3217 82.4826ZM23.0739 117.661L21.9052 117.188L21.9032 117.193L23.0739 117.661ZM68.5004 156.53L56.3961 126.395L54.0561 127.335L66.1604 157.47L68.5004 156.53ZM55.2261 125.604H19.4174V128.126H55.2261V125.604ZM18.2355 126.426C13.5949 138.913 11.0633 149.102 10.7186 156.945L13.2379 157.055C13.5656 149.599 15.9935 139.698 20.5993 127.304L18.2355 126.426ZM11.9782 155.739H3.27824V158.261H11.9782V155.739ZM4.41217 157.551C8.88575 148.351 14.362 135.712 20.839 119.645L18.5001 118.702C12.0322 134.746 6.58088 147.324 2.14432 156.449L4.41217 157.551ZM20.8316 119.663L21.8403 117.268L19.5162 116.289L18.5075 118.685L20.8316 119.663ZM21.8451 117.256L43.7842 63.669L41.4505 62.7136L19.5114 116.301L21.8451 117.256ZM42.6174 64.4522H43.1217V61.9304H42.6174V64.4522ZM41.954 63.6669L80.1583 157.476L82.4938 156.524L44.2895 62.7157L41.954 63.6669ZM81.3261 155.739H67.3304V158.261H81.3261V155.739ZM20.3 125.857H54.3435V123.335H20.3V125.857ZM55.5125 124.123L38.4907 82.0101L36.1527 82.9551L53.1745 125.068L55.5125 124.123ZM36.1531 82.0093L21.9052 117.188L24.2426 118.134L38.4904 82.9559L36.1531 82.0093ZM21.9032 117.193L19.1293 124.127L21.4707 125.064L24.2446 118.129L21.9032 117.193Z" fill="black"/>
</svg>
