<svg width="398" height="367" viewBox="0 0 398 367" fill="none" xmlns="http://www.w3.org/2000/svg">
<path d="M397.367 247.319C397.367 223.623 366.959 221.547 353.201 234.963C320.142 267.194 271.47 279.262 206.369 266.553C93.1918 244.47 92.187 111.815 169.567 73.9755C211.426 53.5043 261.091 77.7407 279.973 92.2495C296.403 104.87 327.827 121.62 326.182 100.553C322.671 55.7015 234.768 -40.3499 116.987 20.3793C-0.783822 81.1084 0.000135326 218.169 0.000135326 243.012V323.064C0.000135326 347.455 20.0297 366.646 44.4207 366.646H353.587C377.978 366.646 397.5 347.455 397.5 323.064C397.5 323.064 397.456 247.385 397.367 247.319Z" fill="#55ACEE"/>
</svg>
