<svg width="497" height="459" viewBox="0 0 497 459" fill="none" xmlns="http://www.w3.org/2000/svg">
<path d="M496.709 308.942C496.709 279.323 458.698 276.728 441.501 293.497C400.178 333.786 339.338 348.871 257.961 332.985C116.49 305.381 115.234 139.563 211.959 92.263C264.282 66.6739 326.364 96.9695 349.966 115.105C370.503 130.881 409.784 151.819 407.727 125.485C403.338 69.4205 293.46 -50.6438 146.233 25.2676C-0.979778 101.179 0.000169157 272.504 0.000169157 303.559V403.624C0.000169157 434.113 25.0371 458.101 55.5259 458.101H441.984C472.473 458.101 496.875 434.113 496.875 403.624C496.875 403.624 496.82 309.025 496.709 308.942Z" fill="#55ACEE"/>
</svg>
