<svg width="622" height="573" viewBox="0 0 622 573" fill="none" xmlns="http://www.w3.org/2000/svg">
<path d="M620.887 385.971C620.887 348.947 573.373 345.703 551.876 366.665C500.222 417.026 424.173 435.883 322.451 416.025C145.612 381.52 144.042 174.247 264.948 115.122C330.353 83.136 407.955 121.005 437.457 143.675C463.129 163.395 512.23 189.567 509.659 156.649C504.173 86.5692 366.825 -63.5112 182.791 31.3781C-1.22472 126.267 0.000211447 340.424 0.000211447 379.242V504.324C0.000211447 542.435 31.2964 572.42 69.4074 572.42H552.48C590.591 572.42 621.094 542.435 621.094 504.324C621.094 504.324 621.025 386.074 620.887 385.971Z" fill="#55ACEE"/>
</svg>
