<svg width="318" height="294" viewBox="0 0 318 294" fill="none" xmlns="http://www.w3.org/2000/svg">
<path d="M317.894 198.02C317.894 179.064 293.567 177.403 282.561 188.135C256.114 213.92 217.176 223.575 165.095 213.408C74.5534 195.741 73.7496 89.6173 135.654 59.3455C169.141 42.9685 208.873 62.3577 223.978 73.9647C237.122 84.0612 262.262 97.4613 260.945 80.6073C258.137 44.7264 187.814 -32.1148 93.5892 16.4685C-0.627058 65.0519 0.000108261 174.7 0.000108261 194.575V258.617C0.000108261 278.129 16.0238 293.482 35.5366 293.482H282.87C302.383 293.482 318 278.129 318 258.617C318 258.617 317.965 198.073 317.894 198.02Z" fill="#55ACEE"/>
</svg>
